<svg xmlns="http://www.w3.org/2000/svg" viewBox="0 -0.5 147 28" shape-rendering="crispEdges">
<metadata>Made with Pixels to Svg https://codepen.io/shshaw/pen/XbxvNj</metadata>
<path stroke="rgba(255,255,255,0.023529411764705882)" d="M7 0h4M16 0h5M39 0h4M46 0h5M75 0h4M84 0h5M93 0h5M124 0h4M139 0h6M14 2h1M22 2h1M52 2h1M90 2h1M99 2h1M137 2h1M146 2h1M4 3h1M13 3h2M22 3h1M36 3h1M52 3h1M72 3h1M81 3h1M90 3h1M99 3h1M121 3h1M130 3h1M146 3h1M4 4h1M13 4h2M22 4h1M36 4h1M52 4h1M72 4h1M90 4h1M99 4h1M121 4h1M130 4h1M136 4h1M146 4h1M4 5h1M22 5h1M27 5h5M36 5h1M52 5h1M56 5h5M72 5h1M101 5h5M118 5h4M133 5h4M146 5h1M12 6h2M22 6h1M25 6h1M54 6h1M72 6h1M98 6h2M107 6h1M112 6h5M129 6h1M131 6h1M3 7h1M12 7h2M22 7h2M35 7h1M51 7h1M72 7h1M129 7h1M144 7h1M3 8h1M12 8h2M35 8h1M51 8h1M72 8h1M110 8h1M144 8h1M3 9h1M12 9h1M21 9h1M35 9h1M72 9h1M144 9h1M3 10h1M65 10h1M72 10h1M65 11h1M72 11h1M143 11h1M2 12h1M65 12h1M72 12h1M143 12h1M2 13h1M57 13h1M65 13h1M72 13h1M143 13h1M2 14h1M65 14h1M72 14h1M102 14h1M118 14h2M143 14h1M56 15h1M65 15h1M72 15h1M102 15h1M117 15h1M119 15h1M134 15h1M1 16h1M56 16h1M65 16h1M72 16h1M102 16h1M117 16h1M134 16h1M142 16h1M1 17h1M10 17h2M56 17h1M72 17h1M101 17h1M118 17h1M142 17h1M1 18h1M10 18h2M64 18h1M72 18h1M93 18h1M101 18h1M116 18h1M118 18h1M133 18h1M142 18h1M26 19h1M64 19h1M72 19h1M93 19h1M101 19h1M116 19h1M118 19h1M133 19h1M142 19h1M0 20h1M9 20h2M64 20h1M72 20h1M93 20h1M116 20h1M0 21h1M9 21h2M72 21h1M92 21h2M116 21h2M141 21h1M0 22h1M9 22h2M63 22h1M72 22h1M93 22h1M117 22h1M141 22h1M0 23h1M9 23h1M18 23h1M72 23h1M91 23h1M93 23h1M115 23h1M117 23h1M141 23h1M0 24h1M9 24h1M18 24h1M48 24h1M72 24h1M81 24h1M91 24h1M107 24h1M115 24h1M117 24h1M125 24h1M141 24h1M8 25h1M18 25h1M32 25h1M72 25h1M107 25h1M117 25h1M125 25h1M30 26h1M59 26h1M3 27h4M12 27h5M22 27h7M34 27h5M42 27h4M51 27h7M74 27h5M84 27h5M97 27h7M109 27h4M119 27h5M129 27h10" />
<path stroke="#ffffff" d="M6 1h1M15 1h7M38 1h6M45 1h7M74 1h6M83 1h7M92 1h7M123 1h6M138 1h8M5 2h2M12 2h1M15 2h1M21 2h1M37 2h2M43 2h3M51 2h1M73 2h2M79 2h2M82 2h2M89 2h1M91 2h2M98 2h1M122 2h2M128 2h2M138 2h1M145 2h1M5 3h1M12 3h1M15 3h1M17 3h5M37 3h1M39 3h4M44 3h6M51 3h1M73 3h1M75 3h4M80 3h1M82 3h1M84 3h4M89 3h1M91 3h1M93 3h4M98 3h1M122 3h1M124 3h4M129 3h1M137 3h6M145 3h1M5 4h1M10 4h1M12 4h1M15 4h7M37 4h1M39 4h6M46 4h4M51 4h1M73 4h1M75 4h4M80 4h3M84 4h4M89 4h1M91 4h1M93 4h4M98 4h1M122 4h1M124 4h4M129 4h1M137 4h1M139 4h4M145 4h1M5 5h1M10 5h3M14 5h4M19 5h1M21 5h1M37 5h1M39 5h3M43 5h2M46 5h4M51 5h1M73 5h1M75 5h3M80 5h2M83 5h5M89 5h3M93 5h6M122 5h1M124 5h2M127 5h3M137 5h1M139 5h4M145 5h1M4 6h1M6 6h1M11 6h1M14 6h1M21 6h1M26 6h7M36 6h3M43 6h2M49 6h3M55 6h7M73 6h1M78 6h1M80 6h2M89 6h2M92 6h1M95 6h1M97 6h1M100 6h7M117 6h7M128 6h1M132 6h6M142 6h4M4 7h1M11 7h1M14 7h1M21 7h1M24 7h3M32 7h2M36 7h1M43 7h2M50 7h1M53 7h3M61 7h2M73 7h1M79 7h3M89 7h2M97 7h4M106 7h3M111 7h7M121 7h1M128 7h1M130 7h3M137 7h1M143 7h1M4 8h1M11 8h1M14 8h1M20 8h5M33 8h2M36 8h1M43 8h2M50 8h1M52 8h2M62 8h2M73 8h1M79 8h2M89 8h2M96 8h3M108 8h2M111 8h1M128 8h3M143 8h1M4 9h1M11 9h1M13 9h2M20 9h1M22 9h1M34 9h1M36 9h1M42 9h2M50 9h3M63 9h2M73 9h1M79 9h2M89 9h1M96 9h2M109 9h3M127 9h3M143 9h1M4 10h1M10 10h4M20 10h3M34 10h3M42 10h2M50 10h2M64 10h1M73 10h1M79 10h1M89 10h1M95 10h2M109 10h2M121 10h1M127 10h2M142 10h2M3 11h2M20 11h2M35 11h2M42 11h2M49 11h2M64 11h1M73 11h1M79 11h1M95 11h2M109 11h2M121 11h1M127 11h2M142 11h1M3 12h1M20 12h1M27 12h2M35 12h1M42 12h3M49 12h3M56 12h3M64 12h1M73 12h1M79 12h2M84 12h1M94 12h2M102 12h2M109 12h2M127 12h1M134 12h2M142 12h1M3 13h1M18 13h3M25 13h4M30 13h1M33 13h1M35 13h1M40 13h1M42 13h3M49 13h1M51 13h1M56 13h1M58 13h2M64 13h1M73 13h1M78 13h1M80 13h1M83 13h1M89 13h1M94 13h2M101 13h3M108 13h1M110 13h1M115 13h1M117 13h4M125 13h1M132 13h1M134 13h2M137 13h1M142 13h1M3 14h1M19 14h3M25 14h1M29 14h1M33 14h1M35 14h1M40 14h3M47 14h1M49 14h1M54 14h6M64 14h1M73 14h1M78 14h1M82 14h1M87 14h1M89 14h1M92 14h1M94 14h1M101 14h1M103 14h1M108 14h3M116 14h2M120 14h1M125 14h2M133 14h3M142 14h1M2 15h2M19 15h1M34 15h2M41 15h2M48 15h2M55 15h1M57 15h1M64 15h1M73 15h1M78 15h1M83 15h1M88 15h1M93 15h2M101 15h1M103 15h1M109 15h1M116 15h1M120 15h1M126 15h1M133 15h1M135 15h1M141 15h2M2 16h1M9 16h4M19 16h1M34 16h1M41 16h2M48 16h2M55 16h1M57 16h1M64 16h1M73 16h1M78 16h1M83 16h1M93 16h2M100 16h2M103 16h1M109 16h1M116 16h1M119 16h2M126 16h1M133 16h1M135 16h1M141 16h1M2 17h1M9 17h1M12 17h1M19 17h1M34 17h1M41 17h2M48 17h1M55 17h1M57 17h1M63 17h2M73 17h1M83 17h1M92 17h3M100 17h1M102 17h2M109 17h1M115 17h2M119 17h1M126 17h1M132 17h4M141 17h1M2 18h1M9 18h1M12 18h1M18 18h2M25 18h4M33 18h2M40 18h2M48 18h1M55 18h3M63 18h1M73 18h1M82 18h1M92 18h1M94 18h1M100 18h1M102 18h1M109 18h1M115 18h1M119 18h1M126 18h1M132 18h1M134 18h1M141 18h1M1 19h2M8 19h2M11 19h2M18 19h2M25 19h1M27 19h1M33 19h2M40 19h2M48 19h1M54 19h3M63 19h1M73 19h1M82 19h1M92 19h1M94 19h1M100 19h1M102 19h1M108 19h2M115 19h1M119 19h1M125 19h2M132 19h1M134 19h1M141 19h1M1 20h2M8 20h1M11 20h1M18 20h2M25 20h3M34 20h1M40 20h2M47 20h2M54 20h3M63 20h1M73 20h1M82 20h1M91 20h2M94 20h1M100 20h3M108 20h1M115 20h1M118 20h2M125 20h2M132 20h3M140 20h2M1 21h2M8 21h1M11 21h1M19 21h1M25 21h2M33 21h1M40 21h2M47 21h2M55 21h1M62 21h2M73 21h1M81 21h2M91 21h1M94 21h1M100 21h2M108 21h1M115 21h1M118 21h1M125 21h2M133 21h1M140 21h1M1 22h2M8 22h1M11 22h1M18 22h2M32 22h2M40 22h2M47 22h2M62 22h1M73 22h1M81 22h2M90 22h2M94 22h1M107 22h2M114 22h2M118 22h1M125 22h2M140 22h1M1 23h2M8 23h1M10 23h2M17 23h1M19 23h1M32 23h2M39 23h2M47 23h3M61 23h2M73 23h1M80 23h3M90 23h1M94 23h1M106 23h3M114 23h1M118 23h1M125 23h2M140 23h1M1 24h2M7 24h2M10 24h1M17 24h1M19 24h2M31 24h3M39 24h2M47 24h1M49 24h1M60 24h2M73 24h1M80 24h1M82 24h1M90 24h1M94 24h2M105 24h2M108 24h1M114 24h1M118 24h1M124 24h1M126 24h2M140 24h1M1 25h2M7 25h1M10 25h2M17 25h1M20 25h2M29 25h3M33 25h1M39 25h3M46 25h2M49 25h2M58 25h3M73 25h1M79 25h2M82 25h2M89 25h2M95 25h2M104 25h2M108 25h1M113 25h2M118 25h1M124 25h1M127 25h2M139 25h2M2 26h6M11 26h7M21 26h9M33 26h7M41 26h6M50 26h9M73 26h7M83 26h7M96 26h9M108 26h6M118 26h7M128 26h12" />
<path stroke="#5f5f5f" d="M7 1h5M8 2h4M7 3h4M7 4h3M7 5h3M18 5h1M78 5h1M126 5h1M5 6h1M6 7h1M96 7h1M140 7h1M56 8h2M114 8h3M18 9h1M25 9h3M54 9h4M78 9h1M94 9h1M113 9h3M25 10h3M53 10h3M101 10h1M112 10h3M139 10h1M24 11h2M53 11h2M60 11h1M84 11h1M86 11h3M98 11h3M112 11h2M129 11h4M139 11h2M7 12h5M23 12h2M85 12h4M97 12h4M112 12h2M128 12h4M138 12h2M6 13h1M8 13h4M14 13h1M23 13h1M82 13h1M84 13h4M97 13h3M106 13h1M127 13h4M138 13h2M9 14h1M13 14h1M84 14h3M96 14h3M111 14h1M127 14h3M138 14h3M12 15h2M16 15h1M52 15h1M82 15h1M84 15h3M96 15h3M127 15h3M138 15h2M138 16h1M78 17h1M86 17h1M90 17h1M106 17h1M130 17h1M138 17h1M32 19h1M60 19h1M88 19h1M96 19h1M104 19h2M123 19h1M33 20h1M60 20h1M89 20h1M103 20h3M123 20h1M18 21h1M30 21h2M59 21h2M86 21h3M102 21h3M122 21h3M135 21h2M138 21h1M16 22h2M29 22h3M57 22h3M85 22h4M101 22h3M122 22h3M132 22h5M15 23h2M28 23h4M36 23h1M44 23h1M52 23h1M56 23h4M85 23h4M122 23h3M132 23h4M12 24h4M27 24h3M56 24h3M84 24h4M12 25h3M54 25h1M84 25h3" />
<path stroke="#b7b7b7" d="M7 2h1M16 2h5M39 2h4M46 2h5M75 2h4M84 2h5M93 2h5M124 2h4M139 2h6M6 3h1M11 3h1M16 3h1M38 3h1M43 3h1M50 3h1M74 3h1M79 3h1M83 3h1M88 3h1M92 3h1M97 3h1M123 3h1M128 3h1M143 3h2M6 4h1M11 4h1M38 4h1M45 4h1M50 4h1M74 4h1M79 4h1M83 4h1M88 4h1M92 4h1M97 4h1M123 4h1M128 4h1M138 4h1M143 4h2M6 5h1M20 5h1M38 5h1M42 5h1M45 5h1M50 5h1M74 5h1M79 5h1M82 5h1M88 5h1M92 5h1M123 5h1M138 5h1M143 5h2M10 6h1M15 6h1M20 6h1M42 6h1M45 6h1M74 6h1M79 6h1M82 6h1M88 6h1M91 6h1M96 6h1M127 6h1M138 6h1M5 7h1M10 7h1M15 7h1M20 7h1M27 7h5M37 7h1M42 7h1M56 7h5M74 7h1M88 7h1M91 7h1M101 7h5M118 7h3M122 7h1M127 7h1M133 7h4M142 7h1M5 8h1M10 8h1M25 8h1M32 8h1M37 8h1M42 8h1M49 8h1M54 8h1M74 8h1M81 8h1M88 8h1M95 8h1M99 8h1M107 8h1M112 8h1M121 8h2M127 8h1M131 8h1M142 8h1M5 9h1M10 9h1M23 9h1M33 9h1M37 9h1M44 9h1M49 9h1M74 9h1M88 9h1M90 9h1M95 9h1M98 9h1M108 9h1M121 9h2M130 9h1M142 9h1M14 10h1M19 10h1M44 10h1M49 10h1M52 10h1M63 10h1M74 10h1M80 10h1M88 10h1M90 10h1M97 10h1M108 10h1M111 10h1M129 10h1M10 11h5M19 11h1M22 11h1M27 11h3M34 11h1M41 11h1M44 11h1M51 11h1M57 11h2M63 11h1M74 11h1M80 11h1M89 11h1M94 11h1M102 11h2M111 11h1M126 11h1M134 11h2M4 12h1M19 12h1M21 12h1M26 12h1M29 12h1M34 12h1M36 12h1M41 12h1M48 12h1M63 12h1M74 12h1M89 12h1M96 12h1M101 12h1M104 12h1M111 12h1M117 12h5M126 12h1M133 12h1M136 12h1M141 12h1M4 13h1M21 13h1M29 13h1M34 13h1M36 13h1M41 13h1M48 13h1M50 13h1M55 13h1M63 13h1M74 13h1M79 13h1M88 13h1M93 13h1M96 13h1M100 13h1M104 13h1M109 13h1M111 13h1M116 13h1M121 13h1M126 13h1M133 13h1M136 13h1M141 13h1M4 14h1M18 14h1M26 14h3M34 14h1M36 14h1M43 14h1M48 14h1M50 14h1M63 14h1M74 14h1M79 14h1M83 14h1M88 14h1M93 14h1M95 14h1M100 14h1M104 14h1M115 14h1M121 14h1M132 14h1M136 14h1M141 14h1M9 15h3M18 15h1M20 15h1M40 15h1M43 15h1M54 15h1M58 15h1M63 15h1M74 15h1M92 15h1M95 15h1M100 15h1M104 15h1M110 15h1M115 15h1M125 15h1M132 15h1M136 15h1M3 16h1M8 16h1M13 16h1M18 16h1M20 16h1M33 16h1M35 16h1M40 16h1M43 16h1M54 16h1M58 16h1M63 16h1M82 16h1M92 16h1M95 16h1M108 16h1M110 16h1M115 16h1M125 16h1M127 16h1M132 16h1M136 16h1M3 17h1M8 17h1M13 17h1M18 17h1M20 17h1M33 17h1M35 17h1M40 17h1M47 17h1M49 17h1M54 17h1M58 17h1M82 17h1M108 17h1M110 17h1M120 17h1M125 17h1M127 17h1M140 17h1M3 18h1M8 18h1M29 18h4M35 18h1M42 18h1M47 18h1M49 18h1M54 18h1M83 18h1M91 18h1M99 18h1M103 18h1M108 18h1M120 18h1M125 18h1M135 18h1M140 18h1M24 19h1M28 19h1M42 19h1M47 19h1M49 19h1M57 19h1M62 19h1M81 19h1M83 19h1M91 19h1M99 19h1M103 19h1M114 19h1M120 19h1M135 19h1M140 19h1M12 20h1M17 20h1M24 20h1M39 20h1M42 20h1M49 20h1M57 20h1M62 20h1M81 20h1M83 20h1M99 20h1M107 20h1M109 20h1M114 20h1M7 21h1M12 21h1M17 21h1M24 21h1M27 21h1M32 21h1M34 21h1M39 21h1M49 21h1M54 21h1M56 21h1M61 21h1M83 21h1M90 21h1M99 21h1M107 21h1M109 21h1M114 21h1M119 21h1M132 21h1M134 21h1M7 22h1M12 22h1M20 22h1M25 22h1M34 22h1M39 22h1M46 22h1M49 22h1M61 22h1M80 22h1M83 22h1M106 22h1M109 22h1M119 22h1M139 22h1M7 23h1M20 23h1M34 23h1M41 23h1M46 23h1M60 23h1M83 23h1M89 23h1M95 23h1M105 23h1M113 23h1M119 23h1M127 23h1M139 23h1M11 24h1M16 24h1M21 24h1M30 24h1M34 24h1M41 24h1M46 24h1M50 24h1M59 24h1M79 24h1M83 24h1M89 24h1M96 24h1M104 24h1M113 24h1M119 24h1M139 24h1M3 25h4M15 25h2M22 25h2M27 25h2M34 25h5M42 25h4M51 25h2M56 25h2M74 25h5M87 25h2M97 25h2M102 25h2M109 25h4M119 25h5M129 25h1M133 25h6" />
<path stroke="#e0e0e0" d="M7 6h3M16 6h4M39 6h3M46 6h3M75 6h3M83 6h5M93 6h2M124 6h3M139 6h3M45 7h1M49 7h1M82 7h1M95 7h1M138 7h1M15 8h1M61 8h1M117 8h1M137 8h1M53 9h1M81 9h1M23 10h1M41 10h1M122 10h1M9 11h1M56 11h1M97 11h1M104 11h1M108 11h1M120 11h1M136 11h1M141 11h1M5 12h1M18 12h1M22 12h1M25 12h1M30 12h1M33 12h1M37 12h1M40 12h1M55 12h1M59 12h1M78 12h1M83 12h1M90 12h1M93 12h1M108 12h1M116 12h1M122 12h1M125 12h1M137 12h1M5 13h1M7 13h1M12 13h2M15 13h3M22 13h1M24 13h1M31 13h2M37 13h3M45 13h3M52 13h3M60 13h3M75 13h3M81 13h1M90 13h3M105 13h1M107 13h1M112 13h3M122 13h3M131 13h1M140 13h1M5 14h1M8 14h1M10 14h3M14 14h4M22 14h3M30 14h3M37 14h3M44 14h1M51 14h1M53 14h1M62 14h1M75 14h3M80 14h2M90 14h2M99 14h1M105 14h3M112 14h3M122 14h1M124 14h1M130 14h2M137 14h1M4 15h1M8 15h1M33 15h1M36 15h1M47 15h1M50 15h1M79 15h1M87 15h1M99 15h1M108 15h1M121 15h1M140 15h1M74 16h1M140 16h1M25 17h8M99 17h1M20 18h1M114 18h1M3 19h1M17 19h1M35 19h1M131 19h1M28 20h1M32 20h1M90 20h1M124 20h1M131 20h1M42 21h1M80 21h1M139 21h1M26 22h1M95 22h1M127 22h1M50 23h1M6 24h1M38 24h1M74 24h1M123 24h1M128 24h1M24 25h3M53 25h1M101 25h1M130 25h1M132 25h1" />
<path stroke="#a8a8a8" d="M7 7h3M16 7h3M39 7h2M46 7h3M75 7h3M83 7h5M92 7h3M124 7h3M139 7h1M141 7h1M6 8h4M16 8h4M26 8h6M38 8h4M45 8h4M55 8h1M58 8h3M75 8h4M82 8h6M92 8h3M101 8h5M113 8h1M118 8h3M123 8h4M132 8h5M138 8h4M6 9h4M15 9h3M28 9h5M38 9h4M45 9h4M58 9h4M75 9h3M82 9h6M91 9h3M99 9h9M112 9h1M117 9h4M123 9h4M131 9h11M6 10h4M15 10h4M24 10h1M28 10h6M38 10h3M45 10h4M56 10h7M75 10h4M81 10h7M91 10h3M99 10h2M102 10h6M115 10h6M123 10h3M130 10h9M140 10h2M6 11h3M16 11h3M23 11h1M30 11h3M38 11h3M45 11h3M55 11h1M59 11h1M61 11h2M75 11h3M82 11h2M85 11h1M91 11h3M105 11h3M114 11h6M123 11h3M133 11h1M137 11h2M6 12h1M12 12h1M15 12h3M32 12h1M38 12h2M45 12h2M53 12h1M60 12h2M76 12h2M91 12h1M106 12h2M114 12h1M123 12h2M5 15h3M15 15h1M22 15h11M37 15h3M44 15h3M51 15h1M53 15h1M60 15h2M75 15h3M80 15h2M89 15h3M105 15h3M112 15h2M122 15h3M130 15h1M4 16h4M14 16h4M21 16h12M36 16h4M44 16h3M50 16h4M59 16h4M75 16h3M79 16h3M85 16h3M89 16h3M96 16h3M105 16h3M111 16h4M121 16h4M128 16h4M137 16h1M139 16h1M4 17h4M14 17h4M21 17h4M36 17h4M43 17h4M50 17h4M59 17h4M75 17h3M79 17h3M84 17h2M87 17h3M91 17h1M96 17h3M104 17h2M107 17h1M111 17h4M121 17h4M128 17h2M131 17h1M137 17h1M139 17h1M4 18h4M14 18h4M21 18h3M36 18h4M43 18h4M50 18h4M59 18h3M75 18h6M84 18h7M95 18h4M104 18h4M111 18h3M121 18h4M128 18h4M136 18h4M4 19h4M13 19h4M20 19h4M29 19h3M36 19h3M43 19h4M50 19h4M58 19h2M61 19h1M75 19h6M84 19h4M89 19h2M95 19h1M97 19h2M106 19h2M110 19h4M121 19h2M124 19h1M127 19h4M136 19h4M3 20h4M13 20h4M20 20h4M29 20h3M35 20h4M43 20h4M50 20h4M58 20h2M61 20h1M75 20h6M84 20h5M95 20h4M106 20h1M110 20h4M121 20h2M127 20h4M136 20h4M3 21h4M13 21h4M21 21h3M28 21h2M35 21h4M43 21h3M50 21h4M57 21h2M75 21h5M84 21h2M89 21h1M95 21h4M105 21h2M110 21h4M120 21h2M127 21h5M137 21h1M3 22h4M13 22h3M21 22h4M27 22h2M35 22h4M42 22h4M50 22h4M56 22h1M75 22h5M84 22h1M96 22h4M104 22h2M110 22h3M120 22h2M128 22h4M137 22h2M3 23h4M13 23h2M21 23h7M35 23h1M37 23h1M42 23h2M45 23h1M51 23h1M53 23h3M75 23h4M84 23h1M96 23h9M110 23h3M120 23h2M128 23h4M136 23h3M3 24h3M22 24h5M35 24h3M43 24h2M52 24h4M75 24h4M97 24h7M110 24h3M120 24h3M129 24h5M136 24h2" />
<path stroke="#c0c0c0" d="M19 7h1M38 7h1M41 7h1M78 7h1M123 7h1M91 8h1M100 8h1M106 8h1M19 9h1M24 9h1M62 9h1M116 9h1M5 10h1M37 10h1M94 10h1M98 10h1M126 10h1M5 11h1M15 11h1M26 11h1M33 11h1M37 11h1M48 11h1M52 11h1M78 11h1M81 11h1M90 11h1M101 11h1M122 11h1M13 12h2M31 12h1M47 12h1M52 12h1M54 12h1M62 12h1M75 12h1M81 12h2M92 12h1M105 12h1M115 12h1M132 12h1M140 12h1M6 14h2M45 14h2M52 14h1M60 14h2M123 14h1M14 15h1M17 15h1M21 15h1M59 15h1M62 15h1M111 15h1M114 15h1M131 15h1M137 15h1M47 16h1M84 16h1M88 16h1M99 16h1M104 16h1M74 17h1M95 17h1M136 17h1M13 18h1M24 18h1M58 18h1M62 18h1M74 18h1M81 18h1M110 18h1M127 18h1M39 19h1M74 19h1M7 20h1M74 20h1M120 20h1M135 20h1M20 21h1M46 21h1M74 21h1M54 22h2M60 22h1M74 22h1M89 22h1M100 22h1M113 22h1M12 23h1M38 23h1M74 23h1M79 23h1M109 23h1M42 24h1M45 24h1M51 24h1M88 24h1M109 24h1M134 24h2M138 24h1M55 25h1M99 25h2M131 25h1" />
</svg>