<svg xmlns="http://www.w3.org/2000/svg" viewBox="0 -0.5 31 128" shape-rendering="crispEdges">
<metadata>Made with Pixels to Svg https://codepen.io/shshaw/pen/XbxvNj</metadata>
<path stroke="#0080ff" d="M13 0h2M13 1h1M15 1h2M12 2h2M16 2h2M9 3h1M12 3h1M16 3h1M10 4h1M12 4h1M15 4h2M20 4h1M10 5h2M15 5h1M17 5h1M21 5h1M9 6h1M11 6h1M14 6h2M17 6h2M22 6h2M9 7h2M13 7h3M17 7h1M3 8h1M10 8h1M3 9h1M9 9h1M16 9h1M2 10h1M9 10h1M12 10h3M16 10h3M22 10h1M26 10h2M2 11h1M8 11h1M11 11h1M14 11h5M21 11h1M26 11h1M28 11h2M1 12h1M9 12h2M14 12h1M17 12h4M27 12h3M0 13h2M3 13h1M14 13h1M18 13h1M26 13h4M0 14h4M11 14h2M14 14h1M18 14h1M20 14h3M25 14h3M10 15h3M14 15h1M18 15h1M20 15h1M24 15h3M9 16h1M12 16h1M14 16h1M18 16h1M20 16h1M25 16h1M8 17h2M12 17h1M14 17h2M18 17h1M21 17h1M25 17h2M3 18h1M12 18h1M14 18h2M18 18h1M21 18h1M25 18h1M27 18h1M3 19h1M9 19h1M12 19h1M14 19h2M18 19h1M21 19h1M25 19h1M27 19h2M3 20h1M10 20h3M14 20h2M18 20h1M22 20h1M24 20h1M29 20h1M12 21h1M14 21h1M22 21h2M28 21h3M12 22h1M14 22h1M18 22h1M22 22h2M28 22h2M12 23h2M18 23h1M22 23h2M27 23h3M11 24h4M17 24h2M22 24h2M25 24h5M5 25h1M11 25h2M14 25h4M22 25h2M26 25h3M6 26h1M11 26h2M18 26h1M22 26h2M10 27h3M21 27h3M8 28h4M17 28h1M20 28h3M9 29h3M18 29h5M19 30h3M5 33h1M7 33h1M9 34h1M18 34h4M9 35h2M12 35h7M22 35h1M10 36h1M12 36h3M9 37h1M12 37h1M9 38h1M12 38h2M15 38h4M22 38h2M4 39h1M9 39h1M11 39h1M13 39h3M17 39h2M21 39h2M25 39h1M27 39h1M9 40h1M11 40h1M13 40h1M16 40h2M20 40h1M27 40h2M12 41h1M14 41h1M16 41h1M19 41h2M26 41h3M14 42h3M20 42h2M26 42h3M0 43h4M12 43h1M14 43h3M27 43h1M0 44h1M12 44h1M26 44h1M0 45h1M8 45h1M12 45h1M26 45h1M0 46h2M3 46h1M11 46h4M16 46h2M21 46h1M29 46h1M1 47h3M11 47h1M13 47h2M17 47h1M21 47h1M29 47h2M3 48h1M10 48h2M17 48h1M21 48h1M29 48h2M11 49h3M17 49h1M21 49h1M24 49h7M3 50h1M12 50h1M14 50h4M21 50h1M24 50h7M13 51h1M15 51h3M21 51h1M24 51h2M28 51h2M3 52h1M8 52h2M13 52h1M15 52h3M24 52h2M2 53h1M9 53h2M13 53h4M20 53h1M24 53h2M2 54h2M11 54h4M20 54h1M24 54h2M7 55h1M11 55h1M14 55h2M19 55h2M24 55h2M7 56h1M9 56h4M15 56h2M19 56h1M24 56h2M5 57h1M7 57h5M13 57h1M15 57h4M23 57h3M5 58h5M14 58h3M23 58h2M15 59h2M22 59h3M19 60h6M20 61h4M21 62h1M17 65h2M16 66h2M19 66h2M10 67h3M16 67h1M21 67h1M10 68h1M13 68h2M16 68h2M21 68h1M5 69h1M10 69h1M14 69h1M16 69h2M21 69h1M23 69h1M3 70h1M9 70h2M14 70h1M16 70h1M21 70h1M23 70h1M25 70h1M3 71h1M10 71h1M15 71h2M21 71h1M25 71h2M10 72h1M14 72h3M20 72h1M22 72h1M24 72h3M10 73h1M14 73h1M16 73h1M25 73h1M9 74h1M25 74h1M3 75h1M0 76h1M2 76h1M14 76h3M20 76h2M28 76h1M0 77h1M10 77h1M14 77h3M20 77h1M23 77h3M29 77h2M0 78h1M10 78h1M19 78h1M29 78h2M1 79h1M10 79h2M20 79h1M29 79h2M2 80h1M9 80h1M11 80h1M19 80h2M23 80h4M28 80h3M9 81h1M11 81h9M21 81h1M23 81h8M9 82h1M13 82h5M19 82h1M21 82h1M23 82h2M29 82h1M4 83h1M10 83h3M22 83h1M24 83h1M22 84h1M24 84h1M22 85h2M5 86h1M12 86h6M19 86h2M22 86h1M24 86h1M26 86h1M6 87h1M10 87h2M22 87h1M26 87h2M7 88h1M21 88h1M23 88h1M25 88h1M27 88h1M8 89h2M19 89h1M21 89h1M26 89h2M13 90h15M10 91h8M20 91h1M22 91h6M11 92h4M15 95h2M8 96h7M17 96h3M19 97h2M13 98h1M15 98h1M20 98h1M3 99h1M9 99h1M13 99h3M20 99h1M3 100h1M8 100h2M14 100h2M19 100h1M23 100h2M3 101h1M14 101h2M19 101h1M24 101h1M13 102h3M18 102h2M23 102h2M9 103h1M14 103h1M18 103h1M23 103h2M17 104h2M22 104h3M16 105h2M22 105h2M9 106h1M11 106h3M15 106h3M22 106h2M10 107h1M13 107h2M17 107h3M21 107h3M5 108h1M10 108h1M13 108h3M20 108h3M24 108h1M9 109h1M12 109h5M26 109h1M9 110h2M12 110h1M15 110h3M26 110h1M2 111h2M11 111h2M16 111h3M25 111h1M27 111h1M1 112h2M11 112h2M16 112h4M22 112h1M24 112h2M30 112h1M0 113h1M11 113h2M16 113h1M20 113h3M29 113h2M0 114h1M2 114h3M12 114h1M16 114h1M28 114h3M1 115h1M10 115h1M12 115h1M16 115h1M19 115h3M27 115h4M10 116h1M12 116h2M16 116h1M20 116h3M24 116h5M9 117h2M12 117h1M15 117h2M20 117h2M23 117h6M2 118h3M9 118h1M12 118h1M16 118h1M20 118h1M25 118h1M3 119h2M10 119h1M12 119h1M15 119h2M20 119h1M12 120h2M15 120h2M20 120h1M13 121h1M15 121h2M19 121h2M6 122h1M11 122h5M19 122h2M9 123h5M19 123h3M8 124h5M19 124h2M9 125h1M16 125h1M19 125h2M16 126h5M17 127h3" />
<path stroke="#7038ff" d="M6 1h2M8 2h1M5 3h1M17 3h2M5 4h1M11 4h1M17 4h1M19 4h1M16 5h1M19 5h2M4 6h1M10 6h1M16 6h1M4 7h1M9 8h1M25 8h1M8 9h1M25 9h1M7 10h2M23 10h1M25 10h1M13 11h1M22 11h4M27 11h1M8 12h1M11 12h3M21 12h6M8 13h1M10 13h1M12 13h2M19 13h1M21 13h5M8 14h3M13 14h1M19 14h1M23 14h2M1 15h3M8 15h2M13 15h1M19 15h1M2 16h2M8 16h1M13 16h1M19 16h1M3 17h1M13 17h1M19 17h2M8 18h1M13 18h1M19 18h2M26 18h1M13 19h1M20 19h1M26 19h1M8 20h1M13 20h1M19 20h3M25 20h4M8 21h3M13 21h1M19 21h1M21 21h1M24 21h1M26 21h2M8 22h4M19 22h1M21 22h1M24 22h4M9 23h1M11 23h1M19 23h3M25 23h1M4 24h1M7 24h1M10 24h1M20 24h2M6 25h5M18 25h4M7 26h3M15 26h1M17 26h1M19 26h3M8 27h2M16 27h1M18 27h3M18 28h2M6 33h1M8 33h1M4 36h1M11 36h1M24 36h1M10 37h2M10 38h2M24 38h1M10 39h1M12 39h1M16 39h1M23 39h2M26 39h1M12 40h1M14 40h1M21 40h6M13 41h1M21 41h1M23 41h3M3 42h2M13 42h1M26 43h1M27 44h1M27 45h1M7 46h1M22 46h1M27 46h2M7 47h1M12 47h1M15 47h2M22 47h1M24 47h2M27 47h1M2 48h1M12 48h5M22 48h7M3 49h1M14 49h3M22 49h2M4 50h1M13 50h1M22 50h2M4 51h1M14 51h1M22 51h2M21 52h3M6 53h3M22 53h2M4 54h5M10 54h1M21 54h3M4 55h3M8 55h3M12 55h2M21 55h3M4 56h3M8 56h1M13 56h2M20 56h1M22 56h1M6 57h1M14 57h1M19 57h4M17 58h6M18 59h4M19 65h1M22 68h1M4 69h1M6 69h1M22 69h1M8 70h1M15 70h1M22 70h1M24 70h1M9 71h1M22 71h3M9 72h1M23 72h1M4 73h1M4 74h1M26 74h1M0 75h2M4 75h1M26 75h1M26 76h2M21 77h1M26 77h3M9 78h1M20 78h9M21 79h1M23 79h1M25 79h4M4 80h1M10 80h1M21 80h2M27 80h1M3 81h2M10 81h1M20 81h1M22 81h1M4 82h2M10 82h1M12 82h1M22 82h1M5 83h1M23 83h1M5 84h1M23 84h1M5 85h1M24 85h1M18 86h1M25 86h1M12 87h10M23 87h3M8 88h2M11 88h10M22 88h1M24 88h1M26 88h1M10 89h3M14 89h5M20 89h1M22 89h1M24 89h2M10 90h3M14 95h1M17 95h1M6 96h2M4 97h1M21 99h1M7 100h1M20 100h3M20 101h4M20 102h3M8 103h1M19 103h1M21 103h1M4 104h1M19 104h3M4 105h1M18 105h1M20 105h2M5 106h1M18 106h3M6 107h1M11 107h2M20 107h1M11 108h2M23 108h1M11 109h1M11 110h1M27 110h1M26 111h1M28 111h1M7 112h1M26 112h1M28 112h1M5 113h3M17 113h3M23 113h4M28 113h1M5 114h2M11 114h1M17 114h4M22 114h6M0 115h1M2 115h2M5 115h2M17 115h2M22 115h3M26 115h1M1 116h6M11 116h1M17 116h3M23 116h1M2 117h5M11 117h1M17 117h3M5 118h1M10 118h2M17 118h2M5 119h1M8 119h2M11 119h1M17 119h1M19 119h1M5 120h7M17 120h1M19 120h1M6 121h5M12 121h1M17 121h2M8 122h3M16 122h3M8 123h1M15 123h4M15 124h4M17 125h2" />
<path stroke="#ff7870" d="M14 1h1M6 2h2M14 2h1M13 3h2M5 5h1M13 5h1M13 6h1M19 6h3M4 8h1M8 8h1M14 8h1M7 9h1M14 9h1M17 9h2M7 11h1M20 11h1M7 12h1M15 12h2M4 13h1M7 13h1M16 13h1M4 14h1M7 14h1M4 15h1M7 15h1M15 15h1M4 16h1M7 16h1M15 16h1M4 17h1M7 17h1M4 18h1M7 18h1M9 18h1M4 19h1M7 19h1M4 20h1M7 20h1M4 21h1M7 21h1M15 21h1M18 21h1M4 22h1M7 22h1M4 23h1M7 23h1M15 23h1M5 24h2M15 24h1M5 34h1M8 34h1M5 35h1M5 36h1M9 36h1M15 36h1M5 37h1M16 37h1M5 38h1M14 38h1M5 39h1M5 40h1M8 40h1M10 40h1M5 41h1M8 41h1M5 42h1M12 42h1M8 44h1M15 44h1M7 45h1M14 45h1M16 45h1M21 45h1M8 46h1M4 47h1M6 47h1M4 49h1M5 50h1M4 52h1M7 52h1M20 52h1M5 53h1M16 54h1M4 70h1M6 70h2M4 71h1M8 71h1M4 72h1M8 72h1M21 72h1M8 73h1M15 75h2M1 76h1M9 77h1M14 78h2M9 79h1M13 79h3M3 80h1M5 80h1M15 80h2M5 81h1M18 82h1M20 82h1M9 83h1M13 83h2M14 85h3M6 86h1M21 86h1M7 87h3M16 96h1M5 97h1M4 98h1M7 99h2M4 100h1M7 101h1M13 101h1M4 102h1M7 102h2M4 103h1M13 103h1M5 105h1M14 105h1M6 106h1M10 106h1M16 107h1M6 108h1M5 109h1M4 110h1M14 110h1M6 112h1M14 112h2M4 113h1M15 113h1M1 114h1M7 114h1M13 114h1M15 114h1M7 115h1M13 115h1M15 115h1M7 116h1M15 116h1M13 117h1M6 118h1M15 118h1M7 119h1M14 119h1" />
<path stroke="#ffc040" d="M15 2h1M8 3h1M15 3h1M9 4h1M13 4h2M9 5h1M12 5h1M14 5h1M5 6h1M8 7h1M11 7h1M18 7h1M21 7h1M12 8h2M15 8h3M21 8h1M4 9h1M10 9h1M12 9h2M15 9h1M19 9h1M3 10h1M11 10h1M19 10h1M21 10h1M3 11h1M9 11h2M2 12h1M2 13h1M15 13h1M17 13h1M15 14h3M16 15h2M21 15h1M10 16h1M16 16h2M21 16h1M16 17h2M16 18h2M10 19h2M16 19h2M16 20h2M16 21h2M13 22h1M15 22h3M14 23h1M16 23h2M16 24h1M7 34h1M8 35h1M19 35h3M16 36h2M21 36h1M13 37h3M17 37h3M21 37h1M8 38h1M19 38h1M8 39h1M20 39h1M18 40h2M9 41h1M11 41h1M17 41h1M17 42h1M19 42h1M4 43h1M17 43h1M21 43h1M2 44h1M13 44h2M16 44h3M21 44h1M11 45h1M13 45h1M15 45h1M17 45h2M20 45h1M4 46h1M18 46h1M20 46h1M8 47h1M10 47h1M18 47h1M20 47h1M4 48h1M20 48h1M5 49h1M10 49h1M18 49h1M20 49h1M20 50h1M5 51h1M8 51h1M12 51h1M20 51h1M6 52h1M10 52h1M3 53h2M11 53h2M17 53h2M15 54h1M17 54h1M19 54h1M16 55h2M17 56h2M18 66h1M17 67h1M11 68h2M19 68h1M13 69h1M19 69h1M11 70h1M13 70h1M17 70h1M19 70h2M12 71h2M17 71h1M20 71h1M13 72h1M17 72h2M11 73h3M17 73h2M21 73h1M8 74h1M10 74h1M12 74h7M21 74h1M12 75h3M17 75h1M21 75h1M4 76h1M8 76h1M12 76h2M17 76h1M19 76h1M2 77h1M11 77h3M17 77h1M19 77h1M1 78h1M8 78h1M11 78h1M13 78h1M16 78h2M2 79h1M4 79h2M8 79h1M16 79h2M19 79h1M8 80h1M12 80h3M17 80h2M8 81h1M15 83h3M21 83h1M13 84h5M21 84h1M13 85h1M17 85h2M8 86h1M10 86h2M8 97h1M10 97h1M12 97h7M8 98h2M12 98h1M16 98h2M19 98h1M4 99h1M10 99h1M12 99h1M16 99h2M19 99h1M10 100h1M12 100h2M16 100h2M4 101h1M8 101h1M12 101h1M16 101h3M9 102h1M11 102h2M16 102h2M12 103h1M15 103h3M8 104h1M13 104h4M10 105h4M15 105h1M14 106h1M9 107h1M15 107h1M9 108h1M16 108h2M19 108h1M17 109h2M21 109h1M8 110h1M13 110h1M7 111h1M10 111h1M13 111h3M21 111h1M3 112h1M10 112h1M13 112h1M20 112h2M1 113h1M3 113h1M8 113h3M13 113h2M8 114h3M14 114h1M14 115h1M14 116h1M14 117h1M8 118h1M13 118h2M6 119h1M13 119h1M14 120h1M14 121h1" />
<path stroke="#ffffff" d="M6 3h2M6 4h2M6 5h2M6 6h2M5 7h3M5 8h3M5 9h2M5 10h2M5 11h2M5 12h2M5 13h2M5 14h2M5 15h2M5 16h2M5 17h2M5 18h2M5 19h2M5 20h2M5 21h2M5 22h2M5 23h2M6 34h1M6 35h2M6 36h2M6 37h2M6 38h2M6 39h2M6 40h2M6 41h2M6 42h2M5 43h3M5 44h3M5 45h2M5 46h2M5 47h1M5 48h3M6 49h2M6 50h2M6 51h2M5 52h1M5 70h1M5 71h3M5 72h3M5 73h3M5 74h3M5 75h3M5 76h3M5 77h3M5 78h3M6 79h2M6 80h2M6 81h2M6 82h2M6 83h2M6 84h2M6 85h2M7 86h1M6 97h2M5 98h3M5 99h2M5 100h2M5 101h2M5 102h2M5 103h3M5 104h3M6 105h2M7 106h1M7 107h1M7 108h1M6 109h2M5 110h3M5 111h2M5 112h1M7 117h1M7 118h1" />
<path stroke="#ffff38" d="M8 4h1M8 5h1M8 6h1M12 6h1M12 7h1M19 7h2M11 8h1M18 8h3M11 9h1M20 9h2M4 10h1M10 10h1M20 10h1M4 11h1M19 11h1M3 12h2M11 16h1M10 17h2M10 18h2M8 36h1M18 36h3M8 37h1M20 37h1M20 38h2M19 39h1M10 41h1M18 41h1M8 42h4M18 42h1M8 43h4M18 43h3M1 44h1M3 44h2M9 44h3M19 44h2M1 45h4M9 45h2M19 45h1M2 46h1M9 46h2M19 46h1M9 47h1M19 47h1M8 48h2M18 48h2M8 49h2M19 49h1M8 50h4M18 50h2M9 51h3M18 51h2M11 52h2M18 52h2M19 53h1M18 54h1M18 55h1M18 67h3M18 68h1M20 68h1M11 69h2M18 69h1M20 69h1M12 70h1M18 70h1M11 71h1M18 71h2M11 72h2M19 72h1M19 73h2M11 74h1M19 74h2M8 75h4M18 75h3M3 76h1M9 76h3M18 76h1M1 77h1M3 77h2M8 77h1M18 77h1M2 78h3M12 78h1M18 78h1M3 79h1M12 79h1M18 79h1M8 82h1M8 83h1M18 83h3M8 84h5M18 84h3M8 85h5M19 85h3M9 86h1M9 97h1M11 97h1M10 98h2M18 98h1M11 99h1M18 99h1M11 100h1M18 100h1M9 101h3M10 102h1M10 103h2M9 104h4M8 105h2M8 106h1M8 107h1M8 108h1M18 108h1M8 109h1M19 109h2M18 110h4M4 111h1M8 111h2M19 111h2M4 112h1M8 112h2M2 113h1M8 115h2M8 116h2M8 117h1" />
</svg>