<svg xmlns="http://www.w3.org/2000/svg" viewBox="0 -0.5 222 30" shape-rendering="crispEdges" width="400px">
<metadata>Made with Pixels to Svg https://codepen.io/shshaw/pen/XbxvNj</metadata>
<path stroke="#ed1c24" d="M5 0h6M17 0h6M49 0h6M180 0h8M214 0h6M5 1h1M10 1h1M17 1h1M22 1h1M49 1h1M53 1h2M180 1h1M187 1h1M214 1h1M219 1h1M3 2h3M10 2h1M15 2h3M22 2h1M46 2h3M54 2h1M178 2h3M187 2h1M212 2h3M219 2h1M2 3h2M7 3h1M10 3h1M15 3h1M22 3h1M46 3h1M51 3h1M54 3h1M177 3h2M182 3h3M187 3h1M211 3h2M216 3h1M219 3h1M2 4h1M7 4h1M10 4h1M19 4h1M22 4h1M46 4h1M51 4h1M54 4h1M177 4h1M182 4h3M187 4h1M211 4h1M216 4h1M219 4h1M0 5h3M5 5h3M10 5h1M17 5h3M22 5h1M44 5h3M49 5h3M54 5h1M177 5h1M180 5h5M187 5h1M209 5h3M214 5h3M219 5h1M0 6h1M5 6h3M10 6h1M17 6h3M22 6h1M44 6h1M49 6h3M54 6h1M177 6h1M182 6h3M187 6h1M209 6h1M214 6h3M219 6h1M0 7h1M3 7h5M10 7h1M17 7h3M22 7h1M29 7h11M44 7h1M46 7h6M54 7h1M61 7h10M92 7h6M100 7h8M109 7h9M124 7h6M136 7h6M148 7h6M155 7h11M170 7h10M182 7h3M187 7h1M194 7h11M209 7h1M212 7h5M219 7h1M0 8h1M5 8h3M10 8h1M17 8h3M22 8h1M29 8h1M39 8h1M44 8h1M49 8h3M54 8h1M61 8h1M70 8h2M92 8h1M97 8h1M100 8h1M107 8h1M109 8h1M117 8h1M124 8h1M129 8h1M136 8h1M141 8h1M148 8h1M153 8h1M155 8h1M165 8h1M170 8h1M180 8h1M182 8h3M187 8h1M194 8h1M204 8h1M209 8h1M214 8h3M219 8h1M0 9h1M5 9h3M10 9h1M17 9h3M22 9h1M29 9h1M39 9h1M44 9h1M49 9h3M54 9h1M60 9h2M63 9h6M71 9h1M92 9h1M97 9h1M99 9h1M107 9h1M109 9h1M117 9h1M124 9h1M129 9h1M136 9h1M141 9h1M148 9h1M153 9h1M155 9h1M165 9h1M170 9h1M180 9h1M182 9h3M187 9h1M194 9h1M204 9h1M209 9h1M214 9h3M219 9h1M0 10h3M5 10h3M10 10h1M17 10h3M22 10h1M27 10h1M34 10h3M41 10h1M44 10h3M49 10h3M54 10h1M58 10h2M63 10h6M72 10h2M90 10h1M97 10h2M102 10h3M107 10h1M112 10h3M117 10h1M121 10h2M126 10h1M129 10h1M133 10h2M141 10h1M146 10h1M153 10h1M160 10h4M165 10h1M167 10h4M173 10h1M177 10h1M182 10h3M187 10h1M192 10h1M199 10h3M206 10h1M209 10h3M214 10h3M219 10h1M2 11h1M5 11h3M10 11h1M17 11h3M22 11h1M27 11h1M34 11h3M41 11h1M46 11h1M49 11h3M54 11h1M58 11h1M63 11h6M73 11h1M90 11h1M95 11h1M97 11h1M102 11h3M107 11h1M112 11h3M117 11h1M121 11h1M126 11h1M129 11h1M133 11h1M141 11h1M146 11h1M153 11h1M160 11h4M165 11h1M167 11h1M177 11h1M182 11h3M187 11h1M192 11h1M199 11h3M211 11h1M214 11h3M219 11h1M2 12h1M5 12h3M10 12h5M17 12h3M22 12h1M24 12h4M29 12h1M34 12h6M41 12h4M46 12h1M49 12h3M54 12h1M56 12h3M61 12h10M73 12h1M87 12h4M92 12h4M97 12h1M100 12h5M107 12h1M110 12h5M117 12h1M119 12h3M124 12h3M129 12h1M133 12h1M136 12h3M141 12h1M143 12h4M148 12h3M153 12h1M158 12h1M160 12h4M165 12h1M167 12h1M170 12h3M175 12h1M177 12h8M187 12h1M189 12h4M194 12h1M197 12h1M199 12h6M207 12h3M211 12h1M214 12h3M219 12h1M2 13h1M5 13h3M17 13h3M22 13h1M24 13h1M29 13h1M37 13h3M44 13h1M46 13h1M49 13h3M54 13h1M56 13h1M68 13h3M73 13h1M87 13h1M92 13h4M102 13h3M111 13h4M117 13h1M119 13h1M124 13h3M129 13h1M133 13h1M136 13h3M141 13h1M143 13h1M148 13h3M158 13h1M160 13h4M165 13h1M167 13h1M170 13h3M175 13h1M180 13h5M187 13h1M189 13h1M194 13h1M197 13h1M202 13h3M209 13h1M211 13h1M214 13h3M219 13h1M2 14h1M5 14h3M17 14h3M22 14h1M24 14h1M29 14h1M32 14h1M37 14h3M44 14h1M46 14h1M49 14h3M54 14h1M56 14h1M68 14h3M73 14h1M87 14h1M92 14h4M102 14h4M111 14h4M117 14h1M119 14h1M124 14h3M129 14h1M133 14h1M136 14h3M141 14h1M143 14h1M148 14h4M158 14h1M160 14h4M165 14h1M167 14h1M170 14h3M175 14h1M180 14h5M187 14h1M189 14h1M194 14h1M197 14h1M202 14h3M209 14h1M211 14h1M214 14h3M219 14h3M2 15h1M5 15h4M17 15h3M22 15h1M24 15h1M27 15h3M32 15h3M39 15h3M44 15h1M46 15h1M49 15h3M54 15h1M56 15h1M61 15h1M68 15h3M73 15h1M87 15h1M92 15h4M102 15h4M109 15h1M111 15h4M117 15h1M119 15h1M124 15h3M129 15h1M133 15h1M136 15h3M141 15h1M143 15h1M148 15h4M156 15h3M160 15h4M165 15h1M167 15h1M170 15h3M175 15h3M182 15h3M187 15h1M189 15h1M192 15h3M197 15h3M204 15h3M209 15h1M211 15h1M214 15h3M221 15h1M2 16h1M5 16h3M17 16h3M22 16h1M24 16h1M27 16h3M32 16h1M34 16h1M39 16h3M44 16h1M46 16h1M49 16h3M54 16h1M56 16h1M61 16h1M68 16h3M73 16h1M87 16h1M92 16h4M102 16h3M109 16h1M111 16h4M117 16h1M119 16h1M124 16h3M129 16h1M133 16h1M136 16h3M141 16h1M143 16h1M148 16h3M158 16h1M160 16h4M165 16h1M167 16h1M170 16h3M175 16h1M177 16h1M182 16h3M187 16h1M189 16h1M192 16h3M197 16h1M199 16h1M204 16h3M209 16h1M211 16h1M214 16h3M221 16h1M2 17h1M5 17h3M10 17h5M17 17h3M22 17h1M24 17h1M27 17h3M32 17h1M34 17h3M39 17h3M44 17h1M46 17h1M49 17h3M54 17h1M56 17h6M63 17h8M73 17h1M87 17h4M92 17h4M97 17h3M102 17h3M107 17h3M111 17h4M117 17h1M119 17h3M124 17h3M129 17h1M133 17h1M136 17h3M141 17h1M143 17h4M148 17h3M153 17h3M158 17h1M160 17h4M165 17h1M167 17h1M170 17h3M175 17h1M177 17h4M182 17h3M187 17h1M189 17h1M192 17h3M197 17h1M199 17h3M204 17h3M209 17h1M211 17h1M214 17h5M221 17h1M2 18h1M5 18h3M10 18h1M17 18h3M22 18h1M24 18h1M27 18h3M32 18h1M36 18h1M39 18h3M44 18h1M46 18h1M49 18h3M54 18h1M58 18h1M68 18h3M73 18h1M90 18h1M92 18h4M97 18h1M102 18h3M107 18h1M109 18h1M111 18h4M117 18h1M121 18h1M124 18h3M129 18h1M133 18h1M136 18h3M141 18h1M146 18h1M148 18h3M153 18h1M158 18h1M160 18h4M165 18h1M167 18h1M170 18h3M175 18h1M180 18h1M182 18h3M187 18h1M189 18h1M192 18h3M197 18h1M201 18h1M204 18h3M209 18h1M211 18h1M214 18h3M221 18h1M2 19h1M5 19h3M10 19h1M17 19h3M22 19h1M24 19h1M27 19h3M32 19h3M36 19h1M39 19h3M44 19h1M46 19h1M49 19h3M54 19h1M56 19h3M64 19h2M68 19h3M73 19h1M90 19h1M92 19h4M97 19h1M102 19h3M107 19h1M109 19h1M111 19h4M117 19h1M121 19h1M124 19h3M129 19h1M131 19h3M136 19h3M141 19h1M146 19h1M148 19h3M153 19h1M158 19h1M160 19h4M165 19h1M167 19h1M170 19h3M175 19h3M180 19h1M182 19h3M187 19h1M189 19h1M192 19h3M197 19h3M201 19h1M204 19h3M209 19h1M211 19h1M214 19h3M219 19h3M2 20h1M5 20h3M10 20h1M17 20h3M22 20h1M24 20h1M27 20h3M34 20h1M36 20h1M39 20h3M44 20h1M46 20h1M49 20h3M54 20h1M56 20h1M59 20h3M63 20h1M65 20h1M68 20h3M73 20h1M90 20h1M92 20h4M97 20h1M102 20h3M107 20h1M109 20h1M111 20h4M117 20h1M121 20h1M124 20h3M129 20h1M131 20h1M136 20h3M141 20h1M146 20h1M148 20h3M153 20h1M158 20h1M160 20h4M165 20h1M167 20h1M170 20h3M177 20h1M180 20h1M182 20h3M187 20h1M189 20h1M192 20h3M199 20h1M201 20h1M204 20h3M209 20h1M211 20h1M219 20h1M2 21h1M5 21h3M10 21h1M17 21h3M22 21h1M24 21h1M27 21h3M34 21h1M36 21h1M39 21h3M44 21h1M46 21h1M49 21h3M54 21h1M56 21h1M59 21h3M63 21h1M68 21h3M73 21h1M90 21h1M92 21h4M97 21h1M102 21h3M107 21h1M109 21h1M111 21h4M117 21h1M121 21h1M124 21h3M129 21h1M131 21h1M136 21h3M141 21h1M146 21h1M148 21h3M153 21h1M158 21h1M160 21h4M165 21h1M167 21h1M170 21h3M177 21h4M182 21h3M187 21h1M189 21h1M192 21h3M199 21h1M201 21h1M204 21h3M209 21h1M211 21h1M219 21h1M2 22h1M5 22h3M10 22h1M17 22h3M22 22h3M27 22h5M34 22h3M39 22h3M44 22h1M46 22h1M49 22h3M54 22h3M58 22h4M63 22h1M68 22h3M73 22h3M90 22h1M92 22h4M97 22h1M102 22h3M107 22h1M109 22h1M111 22h4M117 22h3M121 22h1M124 22h3M129 22h3M134 22h5M141 22h3M146 22h1M148 22h3M153 22h3M158 22h1M160 22h4M165 22h3M170 22h6M178 22h2M182 22h3M187 22h3M192 22h6M199 22h3M204 22h3M209 22h1M211 22h11M2 23h1M5 23h3M10 23h1M17 23h3M24 23h1M29 23h3M39 23h1M44 23h1M46 23h1M49 23h3M56 23h1M58 23h4M63 23h1M68 23h3M75 23h1M90 23h1M92 23h4M97 23h1M102 23h3M107 23h1M109 23h1M111 23h4M119 23h1M121 23h1M124 23h3M136 23h3M143 23h1M146 23h1M148 23h3M158 23h1M160 23h4M173 23h3M182 23h3M194 23h4M204 23h1M209 23h1M211 23h1M221 23h1M2 24h1M5 24h3M10 24h1M17 24h6M24 24h3M29 24h6M39 24h1M42 24h3M46 24h1M49 24h5M56 24h1M58 24h4M63 24h3M68 24h6M75 24h1M90 24h1M92 24h4M97 24h1M102 24h3M107 24h1M109 24h1M111 24h6M119 24h1M121 24h1M124 24h8M136 24h6M143 24h1M146 24h1M148 24h6M158 24h1M160 24h6M168 24h3M173 24h15M190 24h3M194 24h6M204 24h1M207 24h3M211 24h1M214 24h5M221 24h1M2 25h1M5 25h3M10 25h1M17 25h3M24 25h1M27 25h1M32 25h3M41 25h1M46 25h1M49 25h3M56 25h1M61 25h1M68 25h3M75 25h1M90 25h1M92 25h4M97 25h1M102 25h3M107 25h1M109 25h1M111 25h4M119 25h1M121 25h1M126 25h4M136 25h3M143 25h1M146 25h1M148 25h3M158 25h1M160 25h4M168 25h1M170 25h1M175 25h3M182 25h3M190 25h1M192 25h1M197 25h3M207 25h1M211 25h1M214 25h3M221 25h1M2 26h1M5 26h3M10 26h1M17 26h3M24 26h1M27 26h1M32 26h3M41 26h1M46 26h1M49 26h3M56 26h1M61 26h10M75 26h1M90 26h1M92 26h4M97 26h1M102 26h3M107 26h1M109 26h1M111 26h4M119 26h1M121 26h1M126 26h4M136 26h3M143 26h1M146 26h1M148 26h3M155 26h1M158 26h1M160 26h4M168 26h1M170 26h1M175 26h3M182 26h3M189 26h1M192 26h1M197 26h3M206 26h1M211 26h1M214 26h3M221 26h1M2 27h1M10 27h1M22 27h3M27 27h3M39 27h3M46 27h1M54 27h5M73 27h3M90 27h1M97 27h1M107 27h1M109 27h1M117 27h3M122 27h3M131 27h3M141 27h3M146 27h1M153 27h3M158 27h1M165 27h3M170 27h3M180 27h1M187 27h3M192 27h3M204 27h3M211 27h1M219 27h3M2 28h1M10 28h1M22 28h1M29 28h1M39 28h1M46 28h1M54 28h1M58 28h1M73 28h1M90 28h1M97 28h1M107 28h1M109 28h1M117 28h1M124 28h1M131 28h1M133 28h1M141 28h1M146 28h1M153 28h1M158 28h1M165 28h1M172 28h1M179 28h2M187 28h1M194 28h1M204 28h1M211 28h1M219 28h1M2 29h9M15 29h8M29 29h11M46 29h9M58 29h16M90 29h8M100 29h8M109 29h9M124 29h8M133 29h9M146 29h8M158 29h8M172 29h16M194 29h11M211 29h9" />
<path stroke="#fdc943" d="M6 1h3M19 1h2M50 1h3M181 1h5M215 1h3M6 2h1M18 2h1M50 2h1M181 2h1M186 2h1M215 2h1M217 2h1M6 3h1M18 3h1M50 3h1M52 3h1M181 3h1M186 3h1M215 3h1M4 4h1M16 4h1M48 4h1M52 4h1M179 4h1M186 4h1M213 4h1M4 5h1M16 5h1M21 5h1M47 5h1M52 5h1M186 5h1M217 5h1M1 6h1M3 6h1M16 6h1M21 6h1M45 6h3M52 6h1M179 6h3M186 6h1M210 6h3M217 6h1M1 7h1M16 7h1M21 7h1M52 7h1M181 7h1M186 7h1M210 7h1M217 7h1M1 8h2M16 8h1M21 8h1M45 8h2M181 8h1M186 8h1M210 8h2M217 8h1M3 9h2M8 9h2M21 9h1M30 9h2M37 9h2M47 9h1M52 9h1M62 9h1M69 9h1M93 9h4M101 9h1M105 9h2M110 9h2M115 9h1M125 9h4M137 9h4M149 9h4M157 9h1M163 9h2M171 9h2M178 9h2M181 9h1M195 9h2M202 9h2M212 9h2M8 10h2M16 10h1M21 10h1M30 10h1M38 10h1M47 10h1M52 10h1M62 10h1M69 10h1M93 10h2M96 10h1M101 10h1M106 10h1M110 10h2M115 10h1M125 10h1M127 10h2M137 10h1M140 10h1M149 10h1M152 10h1M157 10h1M164 10h1M171 10h1M178 10h2M181 10h1M186 10h1M196 10h1M203 10h1M212 10h2M217 10h1M4 11h1M8 11h1M16 11h1M21 11h1M28 11h4M33 11h1M38 11h3M47 11h1M52 11h1M59 11h4M69 11h4M91 11h4M96 11h1M98 11h4M106 11h1M108 11h4M115 11h1M123 11h3M127 11h2M135 11h3M140 11h1M147 11h3M152 11h1M154 11h5M164 11h1M169 11h3M174 11h3M178 11h4M186 11h1M193 11h1M196 11h3M203 11h3M212 11h2M217 11h1M4 12h1M8 12h2M28 12h1M30 12h1M33 12h1M40 12h1M47 12h1M52 12h1M59 12h2M91 12h1M96 12h1M98 12h1M106 12h1M108 12h1M115 12h1M123 12h1M127 12h2M135 12h1M140 12h1M147 12h1M152 12h1M154 12h1M157 12h1M159 12h1M164 12h1M169 12h1M176 12h1M186 12h1M193 12h1M195 12h2M198 12h1M205 12h1M212 12h2M217 12h1M9 13h2M12 13h5M21 13h1M26 13h3M30 13h1M33 13h3M41 13h1M47 13h1M52 13h1M57 13h2M60 13h8M72 13h1M90 13h2M96 13h6M106 13h5M115 13h1M120 13h2M123 13h1M135 13h1M140 13h1M145 13h3M152 13h6M159 13h1M164 13h1M169 13h1M174 13h1M176 13h3M186 13h1M191 13h3M198 13h3M205 13h3M4 14h1M21 14h1M26 14h1M30 14h1M42 14h1M47 14h1M59 14h2M67 14h1M72 14h1M89 14h1M98 14h1M101 14h1M108 14h1M110 14h1M115 14h1M120 14h1M135 14h1M140 14h1M145 14h1M154 14h1M159 14h1M164 14h1M169 14h1M174 14h1M178 14h1M186 14h1M191 14h1M200 14h1M207 14h2M217 14h1M4 15h1M30 15h1M35 15h1M47 15h1M52 15h1M57 15h1M59 15h1M67 15h1M72 15h1M89 15h1M98 15h1M101 15h1M108 15h1M115 15h1M120 15h1M140 15h1M145 15h1M154 15h1M159 15h1M164 15h1M169 15h1M174 15h1M179 15h1M186 15h1M191 15h1M200 15h1M208 15h1M217 15h1M9 16h1M11 16h3M15 16h2M21 16h1M30 16h1M36 16h3M47 16h1M52 16h1M57 16h2M62 16h5M72 16h1M90 16h2M96 16h3M101 16h1M106 16h3M115 16h1M121 16h3M135 16h1M140 16h1M145 16h3M152 16h3M164 16h1M169 16h1M179 16h2M186 16h1M191 16h1M201 16h3M208 16h1M218 16h3M4 17h1M16 17h1M21 17h1M30 17h1M38 17h1M47 17h1M52 17h1M62 17h1M91 17h1M96 17h1M101 17h1M106 17h1M115 17h1M123 17h1M135 17h1M140 17h1M147 17h1M152 17h1M164 17h1M174 17h1M191 17h1M203 17h1M208 17h1M220 17h1M16 18h1M52 18h1M60 18h8M91 18h1M96 18h1M101 18h1M135 18h1M147 18h1M152 18h1M164 18h1M186 18h1M203 18h1M218 18h3M16 19h1M52 19h1M62 19h1M67 19h1M91 19h1M96 19h1M101 19h1M147 19h1M152 19h1M159 19h1M164 19h1M186 19h1M203 19h1M52 20h1M62 20h1M67 20h1M91 20h1M101 20h1M135 20h1M147 20h1M152 20h1M159 20h1M164 20h1M174 20h1M186 20h1M196 20h1M203 20h1M213 20h1M217 20h1M16 21h1M33 21h1M52 21h1M57 21h1M62 21h1M67 21h1M91 21h1M96 21h1M101 21h1M133 21h1M147 21h1M152 21h1M159 21h1M164 21h1M169 21h1M176 21h1M186 21h1M198 21h1M4 22h1M16 22h1M21 22h1M33 22h1M38 22h1M47 22h1M52 22h1M57 22h1M62 22h1M67 22h1M72 22h1M91 22h1M96 22h1M101 22h1M106 22h1M115 22h1M123 22h1M132 22h1M140 22h1M147 22h1M152 22h1M159 22h1M164 22h1M169 22h1M176 22h1M191 22h1M198 22h1M203 22h1M208 22h1M4 23h1M16 23h1M21 23h3M26 23h3M33 23h3M38 23h1M40 23h2M47 23h1M52 23h3M62 23h1M67 23h1M72 23h3M91 23h1M96 23h1M101 23h1M106 23h1M115 23h4M123 23h1M128 23h8M140 23h3M147 23h1M152 23h3M159 23h1M164 23h3M169 23h3M176 23h5M186 23h2M191 23h3M198 23h3M203 23h1M205 23h4M213 23h8M16 24h1M23 24h1M28 24h1M35 24h1M38 24h1M40 24h1M47 24h1M55 24h1M57 24h1M62 24h1M67 24h1M74 24h1M91 24h1M96 24h1M101 24h1M106 24h1M118 24h1M123 24h1M132 24h1M135 24h1M142 24h1M147 24h1M154 24h1M159 24h1M166 24h1M171 24h1M188 24h1M193 24h1M200 24h1M203 24h1M205 24h1M220 24h1M4 25h1M21 25h3M29 25h2M35 25h6M47 25h1M53 25h3M57 25h3M62 25h6M72 25h1M74 25h1M91 25h1M96 25h1M101 25h1M106 25h1M116 25h3M123 25h3M130 25h3M135 25h1M140 25h3M147 25h1M152 25h3M159 25h1M164 25h3M171 25h3M179 25h3M186 25h3M193 25h3M200 25h3M204 25h2M218 25h3M4 26h1M16 26h1M21 26h1M30 26h1M37 26h2M52 26h1M59 26h1M72 26h1M91 26h1M96 26h1M101 26h1M106 26h1M115 26h2M125 26h1M130 26h1M135 26h1M140 26h1M147 26h1M152 26h1M159 26h1M164 26h1M173 26h2M179 26h1M181 26h1M186 26h1M195 26h1M202 26h2M217 26h2M4 27h1M8 27h2M20 27h2M30 27h2M37 27h2M47 27h1M52 27h1M59 27h2M72 27h1M91 27h1M96 27h1M101 27h1M105 27h2M110 27h2M115 27h1M125 27h1M130 27h1M135 27h1M139 27h2M147 27h1M152 27h1M159 27h1M164 27h1M174 27h1M178 27h2M181 27h1M186 27h1M195 27h2M203 27h1M212 27h2M217 27h1M5 28h4M16 28h6M30 28h1M32 28h7M47 28h6M60 28h1M62 28h2M65 28h5M71 28h2M92 28h5M101 28h6M111 28h5M125 28h6M135 28h6M147 28h6M159 28h6M174 28h5M181 28h6M196 28h8M213 28h5" />
<path stroke="#f67735" d="M9 1h1M18 1h1M21 1h1M186 1h1M218 1h1M7 2h3M19 2h3M49 2h1M51 2h1M53 2h1M182 2h4M216 2h1M218 2h1M4 3h2M8 3h2M16 3h2M19 3h3M47 3h3M53 3h1M179 3h2M185 3h1M213 3h2M217 3h2M3 4h1M5 4h1M8 4h2M15 4h1M17 4h2M20 4h2M47 4h1M49 4h2M53 4h1M178 4h1M180 4h2M185 4h1M212 4h1M214 4h2M217 4h2M3 5h1M8 5h2M15 5h1M20 5h1M48 5h1M53 5h1M178 5h2M185 5h1M212 5h2M218 5h1M8 6h2M15 6h1M20 6h1M48 6h1M53 6h1M178 6h1M185 6h1M213 6h1M218 6h1M2 7h1M8 7h2M15 7h1M20 7h1M53 7h1M180 7h1M185 7h1M211 7h1M218 7h1M3 8h2M8 8h2M15 8h1M20 8h1M30 8h9M47 8h2M53 8h1M62 8h8M93 8h4M101 8h6M110 8h7M125 8h4M137 8h4M149 8h4M156 8h9M171 8h9M185 8h1M195 8h9M212 8h2M218 8h1M1 9h2M15 9h1M20 9h1M32 9h5M45 9h2M48 9h1M53 9h1M70 9h1M100 9h1M102 9h3M112 9h3M116 9h1M156 9h1M158 9h5M173 9h5M185 9h1M197 9h5M210 9h2M218 9h1M3 10h1M15 10h1M20 10h1M28 10h2M31 10h3M37 10h1M39 10h2M48 10h1M53 10h1M60 10h2M70 10h2M91 10h2M99 10h2M105 10h1M108 10h2M116 10h1M123 10h2M135 10h2M138 10h2M147 10h2M150 10h2M154 10h3M158 10h2M172 10h1M174 10h3M180 10h1M185 10h1M193 10h2M197 10h2M202 10h1M204 10h2M218 10h1M3 11h1M15 11h1M20 11h1M37 11h1M48 11h1M53 11h1M105 11h1M116 11h1M122 11h1M134 11h1M138 11h2M150 11h2M168 11h1M172 11h2M185 11h1M202 11h1M206 11h1M218 11h1M3 12h1M15 12h1M20 12h1M31 12h2M48 12h1M53 12h1M71 12h1M99 12h1M105 12h1M116 12h1M122 12h1M134 12h1M139 12h1M151 12h1M155 12h2M168 12h1M173 12h1M185 12h1M206 12h1M218 12h1M3 13h1M8 13h1M20 13h1M25 13h1M31 13h2M36 13h1M43 13h1M48 13h1M53 13h1M71 13h1M88 13h1M105 13h1M116 13h1M127 13h2M134 13h1M139 13h1M144 13h1M151 13h1M168 13h1M173 13h1M179 13h1M185 13h1M190 13h1M195 13h2M201 13h1M208 13h1M212 13h2M218 13h1M3 14h1M8 14h9M20 14h1M25 14h1M27 14h2M31 14h1M33 14h2M36 14h1M40 14h2M43 14h1M48 14h1M53 14h1M58 14h1M61 14h6M71 14h1M88 14h1M90 14h2M96 14h2M99 14h2M106 14h2M109 14h1M116 14h1M121 14h3M127 14h2M134 14h1M139 14h1M144 14h1M146 14h2M152 14h2M155 14h3M168 14h1M173 14h1M176 14h2M179 14h1M185 14h1M190 14h1M192 14h2M195 14h2M198 14h2M201 14h1M205 14h2M212 14h2M218 14h1M3 15h1M9 15h8M20 15h1M25 15h2M31 15h1M36 15h3M42 15h2M48 15h1M53 15h1M58 15h1M60 15h1M62 15h5M71 15h1M88 15h1M90 15h2M96 15h2M99 15h2M106 15h2M110 15h1M116 15h1M121 15h3M127 15h2M134 15h1M139 15h1M144 15h1M146 15h2M152 15h2M155 15h1M168 15h1M173 15h1M178 15h1M180 15h2M185 15h1M190 15h1M195 15h2M201 15h3M207 15h1M212 15h2M218 15h3M3 16h1M8 16h1M20 16h1M25 16h2M31 16h1M35 16h1M42 16h2M48 16h1M53 16h1M60 16h1M67 16h1M71 16h1M88 16h1M99 16h2M105 16h1M110 16h1M116 16h1M120 16h1M127 16h2M134 16h1M139 16h1M144 16h1M151 16h1M155 16h1M168 16h1M173 16h1M178 16h1M185 16h1M190 16h1M195 16h2M200 16h1M207 16h1M212 16h2M217 16h1M3 17h1M8 17h2M15 17h1M20 17h1M25 17h2M31 17h1M37 17h1M42 17h2M48 17h1M53 17h1M71 17h1M100 17h1M105 17h1M110 17h1M116 17h1M122 17h1M127 17h2M134 17h1M139 17h1M151 17h1M168 17h1M173 17h1M185 17h1M190 17h1M195 17h2M202 17h1M207 17h1M212 17h2M219 17h1M3 18h2M8 18h2M15 18h1M20 18h2M25 18h2M30 18h2M37 18h2M42 18h2M47 18h2M53 18h1M59 18h1M71 18h2M100 18h1M105 18h2M110 18h1M115 18h2M122 18h2M127 18h2M134 18h1M139 18h2M151 18h1M168 18h1M173 18h2M185 18h1M190 18h2M195 18h2M202 18h1M207 18h2M212 18h2M217 18h1M3 19h2M8 19h2M15 19h1M20 19h2M25 19h2M30 19h2M37 19h2M42 19h2M47 19h2M53 19h1M59 19h3M63 19h1M66 19h1M71 19h2M100 19h1M105 19h2M110 19h1M115 19h2M122 19h2M127 19h2M134 19h1M139 19h2M151 19h1M168 19h1M173 19h2M185 19h1M190 19h2M195 19h2M202 19h1M207 19h2M212 19h2M217 19h2M3 20h2M8 20h2M15 20h1M20 20h2M25 20h1M30 20h4M37 20h2M42 20h2M47 20h2M53 20h1M57 20h2M66 20h1M71 20h2M100 20h1M105 20h2M110 20h1M115 20h2M122 20h2M127 20h2M132 20h3M139 20h2M151 20h1M168 20h1M173 20h1M175 20h2M185 20h1M190 20h2M195 20h1M197 20h2M202 20h1M207 20h2M212 20h1M214 20h3M218 20h1M3 21h2M8 21h2M15 21h1M20 21h2M25 21h2M30 21h3M37 21h2M42 21h2M47 21h2M53 21h1M58 21h1M66 21h1M71 21h2M100 21h1M105 21h2M110 21h1M115 21h2M122 21h2M127 21h2M132 21h1M134 21h2M139 21h2M151 21h1M168 21h1M173 21h3M185 21h1M190 21h2M195 21h3M202 21h1M207 21h2M212 21h7M3 22h1M8 22h2M15 22h1M20 22h1M25 22h2M32 22h1M37 22h1M42 22h2M48 22h1M53 22h1M66 22h1M71 22h1M100 22h1M105 22h1M110 22h1M116 22h1M122 22h1M127 22h2M133 22h1M139 22h1M151 22h1M168 22h1M177 22h1M180 22h1M185 22h1M190 22h1M202 22h1M207 22h1M3 23h1M8 23h2M15 23h1M20 23h1M25 23h1M32 23h1M36 23h2M43 23h1M48 23h1M66 23h1M71 23h1M100 23h1M105 23h1M110 23h1M122 23h1M127 23h1M139 23h1M151 23h1M155 23h1M167 23h2M172 23h1M185 23h1M189 23h2M201 23h2M212 23h1M3 24h1M8 24h2M15 24h1M27 24h1M36 24h2M41 24h1M48 24h1M54 24h1M66 24h1M100 24h1M105 24h1M110 24h1M117 24h1M122 24h1M133 24h2M155 24h1M167 24h1M172 24h1M189 24h1M201 24h2M206 24h1M212 24h2M219 24h1M3 25h1M8 25h2M15 25h1M20 25h1M31 25h1M48 25h1M52 25h1M60 25h1M71 25h1M100 25h1M105 25h1M110 25h1M115 25h1M122 25h1M133 25h2M139 25h1M151 25h1M155 25h1M167 25h1M174 25h1M178 25h1M185 25h1M189 25h1M196 25h1M206 25h1M212 25h2M217 25h1M3 26h1M8 26h2M15 26h1M20 26h1M22 26h2M28 26h2M31 26h1M35 26h2M39 26h2M48 26h1M54 26h2M57 26h2M60 26h1M71 26h1M73 26h2M100 26h1M105 26h1M110 26h1M117 26h2M122 26h3M131 26h4M139 26h1M141 26h2M151 26h1M153 26h2M165 26h3M171 26h2M178 26h1M180 26h1M185 26h1M187 26h2M193 26h2M196 26h1M200 26h2M204 26h2M212 26h2M219 26h2M3 27h1M5 27h3M15 27h1M17 27h3M32 27h5M49 27h3M53 27h1M61 27h10M92 27h4M100 27h1M102 27h3M112 27h3M116 27h1M126 27h4M134 27h1M136 27h3M148 27h4M160 27h4M173 27h1M175 27h3M182 27h4M197 27h6M214 27h3M218 27h1M3 28h1M9 28h1M15 28h1M53 28h1M59 28h1M100 28h1M110 28h1M116 28h1M134 28h1M173 28h1M195 28h1M212 28h1M218 28h1" />
<path stroke="#ffff44" d="M52 2h1M6 4h1M2 6h1M4 6h1M45 7h1M52 8h1M16 9h1M186 9h1M217 9h1M4 10h1M95 10h1M195 10h1M9 11h1M32 11h1M159 11h1M194 11h2M16 12h1M21 12h1M72 12h1M109 12h1M174 12h1M4 13h1M11 13h1M40 13h1M42 13h1M59 13h1M89 13h1M122 13h1M217 13h1M35 14h1M52 14h1M57 14h1M21 15h1M135 15h1M4 16h1M10 16h1M14 16h1M59 16h1M89 16h1M159 16h1M174 16h1M181 16h1M72 17h1M159 17h1M169 17h1M181 17h1M186 17h1M159 18h1M169 18h1M181 18h1M135 19h1M169 19h1M181 19h1M16 20h1M26 20h1M96 20h1M169 20h1M181 20h1M181 21h1M203 21h1M181 22h1M186 22h1M42 23h1M55 23h1M57 23h1M181 23h1M188 23h1M4 24h1M16 25h1M28 25h1M73 25h1M203 25h1M47 26h1M53 26h1M16 27h1M48 27h1M71 27h1M4 28h1M31 28h1M61 28h1M64 28h1M70 28h1M91 28h1" />
</svg>