<svg xmlns="http://www.w3.org/2000/svg" viewBox="0 -0.5 224 72" shape-rendering="crispEdges" width="400px">
<metadata>Made with Pixels to Svg https://codepen.io/shshaw/pen/XbxvNj</metadata>
<path stroke="#344a51" d="M84 0h7M81 1h13M153 1h7M81 2h5M93 2h2M150 2h13M81 3h2M149 3h6M162 3h3M81 4h2M147 4h5M165 4h2M82 5h1M145 5h6M167 5h2M145 6h4M169 6h2M83 7h1M145 7h2M171 7h1M84 8h1M144 8h3M144 9h3M174 9h2M143 10h3M175 10h1M96 11h1M143 11h3M96 12h1M143 12h2M97 13h1M144 13h1M179 13h1M97 14h1M144 14h1M97 15h2M145 15h1M97 16h2M145 16h1M0 17h99M104 17h5M113 17h34M152 17h25M181 17h39M0 18h99M105 18h4M113 18h34M152 18h26M180 18h41M0 19h2M113 19h2M0 20h2M113 20h2M1 21h1M114 21h1M1 22h1M21 25h2M35 25h2M51 25h2M65 25h2M97 25h2M133 25h2M145 25h2M171 25h2M188 25h2M199 25h2M209 25h2M21 26h2M35 26h2M51 26h2M65 26h2M87 26h12M133 26h2M145 26h2M171 26h2M187 26h3M199 26h2M209 26h2M21 27h2M35 27h2M51 27h2M65 27h2M85 27h14M123 27h12M145 27h2M171 27h2M185 27h5M199 27h2M209 27h2M8 28h10M21 28h2M35 28h2M51 28h2M65 28h2M83 28h6M121 28h14M145 28h2M158 28h10M171 28h2M183 28h6M199 28h2M209 28h2M4 29h19M35 29h2M51 29h2M65 29h2M81 29h6M119 29h6M145 29h2M155 29h18M180 29h7M199 29h2M209 29h2M3 30h7M20 30h3M35 30h2M51 30h2M61 30h6M81 30h4M118 30h5M145 30h2M154 30h6M170 30h3M180 30h5M199 30h2M209 30h2M3 31h3M35 31h2M51 31h2M60 31h7M81 31h2M118 31h3M145 31h2M154 31h3M180 31h2M199 31h2M209 31h2M2 32h3M35 32h2M51 32h2M60 32h3M80 32h3M117 32h3M145 32h2M154 32h1M180 32h2M199 32h2M209 32h2M2 33h3M32 33h5M44 33h9M60 33h2M75 33h8M117 33h3M145 33h2M154 33h1M181 33h1M199 33h2M209 33h2M2 34h2M31 34h6M44 34h9M60 34h2M75 34h7M117 34h2M145 34h2M154 34h1M181 34h1M199 34h2M209 34h2M2 35h2M30 35h4M60 35h1M97 35h2M117 35h2M136 35h4M145 35h2M154 35h1M182 35h1M198 35h3M209 35h2M2 36h2M30 36h3M60 36h1M97 36h2M117 36h2M134 36h7M145 36h2M154 36h1M182 36h1M197 36h4M209 36h2M21 37h2M30 37h2M60 37h1M97 37h2M117 37h2M133 37h5M145 37h2M154 37h1M171 37h2M183 37h1M190 37h10M209 37h2M21 38h2M30 38h2M97 38h2M117 38h2M133 38h3M145 38h2M154 38h1M171 38h2M190 38h9M209 38h2M5 39h1M21 39h2M30 39h2M61 39h1M97 39h2M117 39h2M133 39h2M145 39h2M155 39h1M171 39h2M184 39h1M209 39h2M6 40h1M21 40h2M31 40h1M61 40h2M97 40h2M117 40h2M133 40h2M145 40h2M171 40h2M185 40h1M209 40h2M21 41h2M62 41h1M97 41h2M118 41h1M133 41h2M145 41h2M171 41h2M209 41h2M21 42h2M51 42h2M81 42h2M88 42h1M97 42h2M118 42h1M133 42h2M146 42h1M171 42h2M209 42h2M21 43h2M51 43h2M63 43h1M71 43h1M82 43h1M97 43h2M119 43h1M132 43h3M146 43h1M171 43h2M209 43h2M21 44h2M34 44h1M51 44h2M64 44h1M72 44h1M82 44h1M97 44h2M127 44h8M146 44h1M171 44h2M209 44h2M21 45h2M51 45h2M74 45h1M91 45h2M97 45h2M128 45h6M145 45h2M171 45h2M209 45h2M21 46h2M51 46h2M75 46h2M92 46h2M97 46h2M145 46h2M171 46h2M199 46h2M209 46h2M21 47h2M51 47h2M77 47h1M85 47h1M97 47h2M145 47h2M171 47h2M199 47h2M209 47h2M21 48h2M51 48h2M85 48h1M97 48h2M145 48h2M171 48h2M199 48h2M209 48h2M21 49h2M51 49h2M97 49h2M145 49h2M171 49h2M199 49h2M209 49h2M21 50h2M51 50h2M97 50h2M145 50h2M171 50h2M199 50h2M209 50h2M138 51h2M89 52h1M138 52h2M137 53h3M137 54h3M135 55h4M134 56h5M122 57h4M132 57h5M122 58h4M132 58h4M122 59h2M132 59h2M123 60h1M128 60h1M133 60h1M133 61h1M134 62h1M125 63h1M140 63h2M126 64h1M138 64h5M134 65h8M135 66h5" />
<path stroke="#ff0000" d="M86 2h1M88 3h1M92 3h2M86 4h8M96 4h1M85 5h1M87 5h8M153 5h1M155 5h3M86 6h5M92 6h5M149 6h1M153 6h1M155 6h5M163 6h3M87 7h4M95 7h1M151 7h8M160 7h6M167 7h1M87 8h1M90 8h1M92 8h1M94 8h1M96 8h2M99 8h1M150 8h5M159 8h1M162 8h3M166 8h1M168 8h1M91 9h2M148 9h1M150 9h8M162 9h1M167 9h1M97 10h2M100 10h1M147 10h2M150 10h2M153 10h3M168 10h3M98 11h1M148 11h3M152 11h2M168 11h1M173 11h1M177 11h1M147 12h5M153 12h1M172 12h1M176 12h1M99 13h1M148 13h3M174 13h1M177 13h1M147 14h4M147 15h1M149 15h2M147 16h1M149 16h1M147 17h1M149 17h1M177 17h1M99 18h1M103 18h1M147 18h2M150 18h1M7 19h1M9 19h1M13 19h1M16 19h2M24 19h1M27 19h2M41 19h1M58 19h1M63 19h1M66 19h1M74 19h2M84 19h1M90 19h1M100 19h4M125 19h1M134 19h1M145 19h1M147 19h1M149 19h2M152 19h1M154 19h1M157 19h1M160 19h1M163 19h1M170 19h1M174 19h2M180 19h1M184 19h1M198 19h2M201 19h1M209 19h3M217 19h1M5 20h1M8 20h1M11 20h1M13 20h3M17 20h2M21 20h1M23 20h1M26 20h1M28 20h1M32 20h2M35 20h3M41 20h2M44 20h1M47 20h4M53 20h1M55 20h2M58 20h2M61 20h14M76 20h7M85 20h2M89 20h6M97 20h8M119 20h2M125 20h4M130 20h4M135 20h2M139 20h1M143 20h1M146 20h12M159 20h2M162 20h2M165 20h1M167 20h3M172 20h2M176 20h2M179 20h2M185 20h1M187 20h1M190 20h5M197 20h4M203 20h2M206 20h3M211 20h1M213 20h2M222 20h1M5 21h2M8 21h8M18 21h1M20 21h1M22 21h4M27 21h4M32 21h8M42 21h1M44 21h3M48 21h3M52 21h8M61 21h4M68 21h1M70 21h2M73 21h1M75 21h2M78 21h3M82 21h5M88 21h20M118 21h2M123 21h2M126 21h4M132 21h7M140 21h2M144 21h14M159 21h2M162 21h14M177 21h4M182 21h7M190 21h7M198 21h1M200 21h1M202 21h5M208 21h3M212 21h4M217 21h4M4 22h9M14 22h8M23 22h8M32 22h1M34 22h6M41 22h8M50 22h14M65 22h9M75 22h5M81 22h7M90 22h8M99 22h10M110 22h1M118 22h11M132 22h5M138 22h7M147 22h9M157 22h6M164 22h8M173 22h12M187 22h12M201 22h5M207 22h14M5 23h1M7 23h1M10 23h1M14 23h1M20 23h1M22 23h1M25 23h6M32 23h1M35 23h3M39 23h2M42 23h2M47 23h1M53 23h8M62 23h1M64 23h1M66 23h1M68 23h1M70 23h3M74 23h1M76 23h2M79 23h1M82 23h1M88 23h3M98 23h7M106 23h4M121 23h1M126 23h1M128 23h3M135 23h6M147 23h5M153 23h2M156 23h1M161 23h1M164 23h3M170 23h1M175 23h4M180 23h2M186 23h1M189 23h2M192 23h3M198 23h10M210 23h10M3 24h1M23 24h6M39 24h4M53 24h1M55 24h6M69 24h5M99 24h1M101 24h3M107 24h1M135 24h6M146 24h6M153 24h1M172 24h1M174 24h5M190 24h4M195 24h1M202 24h6M210 24h2M213 24h5M24 25h4M39 25h2M42 25h2M54 25h1M57 25h2M68 25h1M70 25h4M100 25h1M103 25h3M137 25h4M147 25h1M149 25h5M175 25h2M179 25h1M191 25h4M203 25h3M207 25h1M212 25h6M24 26h4M39 26h2M54 26h5M68 26h3M101 26h1M103 26h3M137 26h1M139 26h1M147 26h1M149 26h2M174 26h4M190 26h1M193 26h1M202 26h1M204 26h3M212 26h5M24 27h3M40 27h2M55 27h1M57 27h1M70 27h1M102 27h1M104 27h2M135 27h1M137 27h3M141 27h1M148 27h1M150 27h2M175 27h1M177 27h1M191 27h3M202 27h1M204 27h1M214 27h2M217 27h1M24 28h2M27 28h2M41 28h1M54 28h1M56 28h2M70 28h2M101 28h3M136 28h4M147 28h5M175 28h4M191 28h2M201 28h4M214 28h2M25 29h3M40 29h2M56 29h2M92 29h1M98 29h2M101 29h1M105 29h1M134 29h2M137 29h3M141 29h1M149 29h1M175 29h2M178 29h1M190 29h4M201 29h5M213 29h3M11 30h1M25 30h4M40 30h2M54 30h2M57 30h2M67 30h1M70 30h1M72 30h1M92 30h2M95 30h3M99 30h5M128 30h1M134 30h4M139 30h1M149 30h4M174 30h4M190 30h2M193 30h1M204 30h2M214 30h1M8 31h1M11 31h2M14 31h1M20 31h1M23 31h5M40 31h2M55 31h2M58 31h1M68 31h3M85 31h9M96 31h7M104 31h1M124 31h6M131 31h5M137 31h2M148 31h5M160 31h1M164 31h5M174 31h4M185 31h1M187 31h7M203 31h3M213 31h3M9 32h1M12 32h8M21 32h7M39 32h2M56 32h2M59 32h1M69 32h4M85 32h4M90 32h3M94 32h11M124 32h7M133 32h1M135 32h4M149 32h1M151 32h1M158 32h7M166 32h1M168 32h4M174 32h4M184 32h9M202 32h4M213 32h4M7 33h5M13 33h2M16 33h12M38 33h3M56 33h1M69 33h5M84 33h7M93 33h3M99 33h5M122 33h2M125 33h2M128 33h4M133 33h1M136 33h2M148 33h3M159 33h2M162 33h16M184 33h6M191 33h1M194 33h1M203 33h2M213 33h4M6 34h1M8 34h11M20 34h8M37 34h1M39 34h1M54 34h1M56 34h3M66 34h2M69 34h4M85 34h4M90 34h1M93 34h1M99 34h6M122 34h8M149 34h2M156 34h1M159 34h8M168 34h3M172 34h6M186 34h3M190 34h1M202 34h4M214 34h3M7 35h7M15 35h1M23 35h5M38 35h6M45 35h1M52 35h1M54 35h3M58 35h1M63 35h12M83 35h3M88 35h1M101 35h4M123 35h3M148 35h1M150 35h2M157 35h7M166 35h1M174 35h5M186 35h3M204 35h2M215 35h2M8 36h5M14 36h1M25 36h3M35 36h1M38 36h7M47 36h2M52 36h1M55 36h3M63 36h13M77 36h2M80 36h6M102 36h2M105 36h1M120 36h1M122 36h3M126 36h1M148 36h1M150 36h2M153 36h1M157 36h9M173 36h5M186 36h2M189 36h1M203 36h3M212 36h1M6 37h9M24 37h4M34 37h1M36 37h14M51 37h7M64 37h12M78 37h2M81 37h6M101 37h4M120 37h6M147 37h2M150 37h2M155 37h1M157 37h7M174 37h4M186 37h1M188 37h1M201 37h2M204 37h2M214 37h2M7 38h7M24 38h5M34 38h1M37 38h20M61 38h1M64 38h9M74 38h13M101 38h3M119 38h1M121 38h4M136 38h1M149 38h4M157 38h6M164 38h1M174 38h5M186 38h2M200 38h1M202 38h3M213 38h2M216 38h1M8 39h6M24 39h4M34 39h11M46 39h1M48 39h1M50 39h9M62 39h1M64 39h8M74 39h2M79 39h1M81 39h6M100 39h1M102 39h3M121 39h3M138 39h4M147 39h5M158 39h6M175 39h3M186 39h1M188 39h2M199 39h1M201 39h5M213 39h3M8 40h1M11 40h4M24 40h2M27 40h2M36 40h7M44 40h1M46 40h1M54 40h4M64 40h1M66 40h4M72 40h1M81 40h1M85 40h2M101 40h2M120 40h5M138 40h4M149 40h1M151 40h1M159 40h3M175 40h3M187 40h3M192 40h2M199 40h8M213 40h3M10 41h3M25 41h3M35 41h7M53 41h2M56 41h2M66 41h5M76 41h1M83 41h1M85 41h1M87 41h1M100 41h1M102 41h3M121 41h3M136 41h7M147 41h3M157 41h1M160 41h2M163 41h1M175 41h3M188 41h1M191 41h15M214 41h1M216 41h1M9 42h1M12 42h1M24 42h5M36 42h7M54 42h6M65 42h5M84 42h2M102 42h4M121 42h4M135 42h1M137 42h6M145 42h1M149 42h1M158 42h1M160 42h1M162 42h2M174 42h4M191 42h1M193 42h4M198 42h8M213 42h3M25 43h4M34 43h1M38 43h4M54 43h1M56 43h3M67 43h1M85 43h2M102 43h3M123 43h1M136 43h7M147 43h1M149 43h2M175 43h3M189 43h1M193 43h1M195 43h3M201 43h4M213 43h1M12 44h1M25 44h3M36 44h1M38 44h2M42 44h1M55 44h5M66 44h1M70 44h1M87 44h2M100 44h5M122 44h4M137 44h5M149 44h3M174 44h4M195 44h1M199 44h1M202 44h4M214 44h1M25 45h1M27 45h1M38 45h1M40 45h1M55 45h3M69 45h1M87 45h1M101 45h3M121 45h1M123 45h3M136 45h6M147 45h2M150 45h3M174 45h4M201 45h5M212 45h1M215 45h2M25 46h3M43 46h1M54 46h3M66 46h1M69 46h1M74 46h1M84 46h1M86 46h1M90 46h1M101 46h4M126 46h1M137 46h5M148 46h3M202 46h4M215 46h3M25 47h4M40 47h1M55 47h2M67 47h1M69 47h4M74 47h1M87 47h2M90 47h1M101 47h1M103 47h1M127 47h1M129 47h4M135 47h5M151 47h1M176 47h2M202 47h4M213 47h4M24 48h4M54 48h2M57 48h1M70 48h1M72 48h2M75 48h1M101 48h1M103 48h1M124 48h1M127 48h1M129 48h1M131 48h6M138 48h5M147 48h4M174 48h4M202 48h4M214 48h2M217 48h1M24 49h4M55 49h2M58 49h1M71 49h1M73 49h4M90 49h2M101 49h3M128 49h2M132 49h1M134 49h4M139 49h1M148 49h4M175 49h3M202 49h1M204 49h1M214 49h2M25 50h3M56 50h2M71 50h1M73 50h5M87 50h1M91 50h1M101 50h4M131 50h3M139 50h1M144 50h1M148 50h1M150 50h1M174 50h5M203 50h3M213 50h2M216 50h1M26 51h1M57 51h1M73 51h1M75 51h1M77 51h2M80 51h1M91 51h1M103 51h1M142 51h1M150 51h2M176 51h2M204 51h2M215 51h2M76 52h3M140 52h1M142 52h2M146 52h1M204 52h1M59 53h1M73 53h1M75 53h3M102 53h1M142 53h2M143 54h1M153 54h1M179 54h1M143 55h2M77 56h1M141 56h1M143 56h3M140 57h6M138 58h8M138 59h5M144 59h2M137 60h8M134 61h2M138 61h1M143 61h1M137 62h4M142 62h2M145 62h1M142 63h2M132 64h1M143 64h1M143 65h2M141 66h1M144 66h1M130 67h1M140 67h5M136 68h2M139 68h4M135 69h1M139 69h2M142 69h1M137 70h1M139 70h1M145 70h1M136 71h2" />
<path stroke="#ff00ff" d="M87 2h6M83 3h5M89 3h3M94 3h2M155 3h6M83 4h3M94 4h2M152 4h13M83 5h2M86 5h1M95 5h3M151 5h2M154 5h1M158 5h9M83 6h3M91 6h1M97 6h2M150 6h3M154 6h1M160 6h3M166 6h3M84 7h3M91 7h4M96 7h3M147 7h4M159 7h1M166 7h1M168 7h3M85 8h2M88 8h2M91 8h1M93 8h1M95 8h1M98 8h1M147 8h3M155 8h4M160 8h2M165 8h1M167 8h1M169 8h4M85 9h6M93 9h7M147 9h1M149 9h1M158 9h4M163 9h4M168 9h6M86 10h1M95 10h2M99 10h1M146 10h1M149 10h1M152 10h1M156 10h12M171 10h4M97 11h1M99 11h3M146 11h2M151 11h1M154 11h1M169 11h4M174 11h3M97 12h5M145 12h2M152 12h1M154 12h1M170 12h2M173 12h3M177 12h1M98 13h1M100 13h3M145 13h3M151 13h3M171 13h3M175 13h2M178 13h1M99 14h4M145 14h2M151 14h2M173 14h7M99 15h4M146 15h1M148 15h1M151 15h1M175 15h7M99 16h5M146 16h1M148 16h1M150 16h2M176 16h5M99 17h5M148 17h1M150 17h2M178 17h3M100 18h3M104 18h1M149 18h1M151 18h1M178 18h2M2 19h5M8 19h1M10 19h3M14 19h2M18 19h6M25 19h2M29 19h12M42 19h16M59 19h4M64 19h2M67 19h7M76 19h8M85 19h5M91 19h9M104 19h7M115 19h10M126 19h8M135 19h10M146 19h1M148 19h1M151 19h1M153 19h1M155 19h2M158 19h2M161 19h2M164 19h6M171 19h3M176 19h4M181 19h3M185 19h13M200 19h1M202 19h7M212 19h5M218 19h4M2 20h3M6 20h2M9 20h2M12 20h1M16 20h1M19 20h2M22 20h1M24 20h2M27 20h1M29 20h3M34 20h1M38 20h3M43 20h1M45 20h2M51 20h2M54 20h1M57 20h1M60 20h1M75 20h1M83 20h2M87 20h2M95 20h2M105 20h6M115 20h4M121 20h4M129 20h1M134 20h1M137 20h2M140 20h3M144 20h2M158 20h1M161 20h1M164 20h1M166 20h1M170 20h2M174 20h2M178 20h1M181 20h4M186 20h1M188 20h2M195 20h2M201 20h2M205 20h1M209 20h2M212 20h1M215 20h7M2 21h3M7 21h1M16 21h2M19 21h1M21 21h1M26 21h1M31 21h1M40 21h2M43 21h1M47 21h1M51 21h1M60 21h1M65 21h3M69 21h1M72 21h1M74 21h1M77 21h1M81 21h1M87 21h1M108 21h3M115 21h3M120 21h3M125 21h1M130 21h2M139 21h1M142 21h2M158 21h1M161 21h1M176 21h1M181 21h1M189 21h1M197 21h1M199 21h1M201 21h1M207 21h1M211 21h1M216 21h1M221 21h2M2 22h2M13 22h1M22 22h1M31 22h1M33 22h1M40 22h1M49 22h1M64 22h1M74 22h1M80 22h1M88 22h2M98 22h1M109 22h1M116 22h2M129 22h3M137 22h1M145 22h2M156 22h1M163 22h1M172 22h1M185 22h2M199 22h2M206 22h1M221 22h2M3 23h2M6 23h1M8 23h2M11 23h3M15 23h5M21 23h1M23 23h2M31 23h1M33 23h2M38 23h1M41 23h1M44 23h3M48 23h5M61 23h1M63 23h1M65 23h1M67 23h1M69 23h1M73 23h1M75 23h1M78 23h1M80 23h2M83 23h5M91 23h7M105 23h1M110 23h2M117 23h4M122 23h4M127 23h1M131 23h4M141 23h6M152 23h1M155 23h1M157 23h4M162 23h2M167 23h3M171 23h4M179 23h1M182 23h4M187 23h2M191 23h1M195 23h3M208 23h2M220 23h4M4 24h19M29 24h10M43 24h10M54 24h1M61 24h8M74 24h25M100 24h1M104 24h3M108 24h4M117 24h18M141 24h5M152 24h1M154 24h18M173 24h1M179 24h11M194 24h1M196 24h6M208 24h2M212 24h1M218 24h6M23 25h1M28 25h2M37 25h2M41 25h1M53 25h1M55 25h2M59 25h1M67 25h1M69 25h1M99 25h1M101 25h2M106 25h1M135 25h2M141 25h1M148 25h1M173 25h2M177 25h2M190 25h1M201 25h2M206 25h1M211 25h1M23 26h1M28 26h2M37 26h2M41 26h3M53 26h1M59 26h1M67 26h1M71 26h3M99 26h2M102 26h1M106 26h1M135 26h2M138 26h1M140 26h2M148 26h1M151 26h3M173 26h1M178 26h2M191 26h2M194 26h1M201 26h1M203 26h1M207 26h1M211 26h1M217 26h1M23 27h1M27 27h3M37 27h3M42 27h2M53 27h2M56 27h1M58 27h2M67 27h3M71 27h4M99 27h3M103 27h1M106 27h1M136 27h1M140 27h1M147 27h1M149 27h1M152 27h2M173 27h2M176 27h1M178 27h2M190 27h1M194 27h2M201 27h1M203 27h1M205 27h3M211 27h3M216 27h1M23 28h1M26 28h1M29 28h1M37 28h4M42 28h2M53 28h1M55 28h1M58 28h2M67 28h3M72 28h3M89 28h12M104 28h3M135 28h1M140 28h2M152 28h2M173 28h2M179 28h1M189 28h2M193 28h3M205 28h3M211 28h3M216 28h2M23 29h2M28 29h2M37 29h3M42 29h2M53 29h3M58 29h2M67 29h8M87 29h5M93 29h5M100 29h1M102 29h3M106 29h1M126 29h8M136 29h1M140 29h1M147 29h2M150 29h4M173 29h2M177 29h1M179 29h1M187 29h3M194 29h2M206 29h2M211 29h2M216 29h2M12 30h8M23 30h2M29 30h1M37 30h3M42 30h2M53 30h1M56 30h1M59 30h1M68 30h2M71 30h1M73 30h2M85 30h7M94 30h1M98 30h1M104 30h3M123 30h5M129 30h5M138 30h1M140 30h2M147 30h2M153 30h1M161 30h9M173 30h1M178 30h2M185 30h5M192 30h1M194 30h2M201 30h3M206 30h2M211 30h3M215 30h3M7 31h1M9 31h2M13 31h1M15 31h5M21 31h2M28 31h2M37 31h3M42 31h2M53 31h2M57 31h1M59 31h1M67 31h1M71 31h4M83 31h2M94 31h2M103 31h1M105 31h2M121 31h3M130 31h1M136 31h1M139 31h3M147 31h1M153 31h1M157 31h3M161 31h3M169 31h5M178 31h2M182 31h3M186 31h1M194 31h2M201 31h2M206 31h2M211 31h2M216 31h2M5 32h4M10 32h2M20 32h1M28 32h2M37 32h2M41 32h3M53 32h3M58 32h1M63 32h6M73 32h2M83 32h2M89 32h1M93 32h1M105 32h2M120 32h4M131 32h2M134 32h1M139 32h3M147 32h2M150 32h1M152 32h2M155 32h3M165 32h1M167 32h1M172 32h2M178 32h2M182 32h2M193 32h2M201 32h1M206 32h2M211 32h2M217 32h1M5 33h2M12 33h1M15 33h1M28 33h2M37 33h1M41 33h3M53 33h3M57 33h3M63 33h6M74 33h1M83 33h1M91 33h2M96 33h3M104 33h3M120 33h2M124 33h1M127 33h1M132 33h1M134 33h2M138 33h4M147 33h1M151 33h3M155 33h4M161 33h1M178 33h2M182 33h2M190 33h1M192 33h2M201 33h2M205 33h3M211 33h2M217 33h1M4 34h2M7 34h1M19 34h1M28 34h2M38 34h1M40 34h4M53 34h1M55 34h1M59 34h1M62 34h4M68 34h1M73 34h2M82 34h3M89 34h1M91 34h2M94 34h5M105 34h2M119 34h3M130 34h11M147 34h2M151 34h3M155 34h1M157 34h2M167 34h1M171 34h1M178 34h2M182 34h4M189 34h1M191 34h3M201 34h1M206 34h2M211 34h3M217 34h1M4 35h3M14 35h1M16 35h7M28 35h2M34 35h4M44 35h1M46 35h6M53 35h1M57 35h1M59 35h1M61 35h2M75 35h8M86 35h2M89 35h2M99 35h2M105 35h2M119 35h4M126 35h5M147 35h1M149 35h1M152 35h2M155 35h2M164 35h2M167 35h7M179 35h1M183 35h3M189 35h2M201 35h3M206 35h2M211 35h4M217 35h1M4 36h4M13 36h1M15 36h10M28 36h2M33 36h2M36 36h2M45 36h2M49 36h3M53 36h2M58 36h2M61 36h2M76 36h1M79 36h1M86 36h4M99 36h3M104 36h1M106 36h1M119 36h1M121 36h1M125 36h1M127 36h2M147 36h1M149 36h1M152 36h1M155 36h2M166 36h7M178 36h2M183 36h3M188 36h1M201 36h2M206 36h2M211 36h1M213 36h5M4 37h2M15 37h1M23 37h1M28 37h2M32 37h2M35 37h1M50 37h1M58 37h2M61 37h3M76 37h2M80 37h1M87 37h1M99 37h2M105 37h2M119 37h1M126 37h1M138 37h4M149 37h1M152 37h2M156 37h1M164 37h2M173 37h1M178 37h2M184 37h2M187 37h1M189 37h1M200 37h1M203 37h1M206 37h2M211 37h3M216 37h2M5 38h2M14 38h2M23 38h1M29 38h1M32 38h2M35 38h2M57 38h3M62 38h2M73 38h1M87 38h1M99 38h2M104 38h3M120 38h1M125 38h2M137 38h6M147 38h2M153 38h1M155 38h2M163 38h1M165 38h1M173 38h1M179 38h1M184 38h2M188 38h2M199 38h1M201 38h1M205 38h3M211 38h2M215 38h1M217 38h1M6 39h2M14 39h2M23 39h1M28 39h2M32 39h2M45 39h1M47 39h1M49 39h1M59 39h1M63 39h1M72 39h2M76 39h3M80 39h1M99 39h1M101 39h1M105 39h2M119 39h2M124 39h2M135 39h3M142 39h2M152 39h2M156 39h2M164 39h2M173 39h2M178 39h2M187 39h1M190 39h9M200 39h1M206 39h2M211 39h2M216 39h2M7 40h1M9 40h2M15 40h1M23 40h1M26 40h1M29 40h1M32 40h4M43 40h1M45 40h1M47 40h7M58 40h2M63 40h1M65 40h1M70 40h2M74 40h7M82 40h3M99 40h2M103 40h4M119 40h1M125 40h1M135 40h3M142 40h3M147 40h2M150 40h1M152 40h2M157 40h2M162 40h4M173 40h2M178 40h2M186 40h1M190 40h2M194 40h5M207 40h1M211 40h2M216 40h2M7 41h3M13 41h3M23 41h2M28 41h2M32 41h3M42 41h11M55 41h1M58 41h2M63 41h3M71 41h1M77 41h6M84 41h1M86 41h1M99 41h1M101 41h1M105 41h2M119 41h2M124 41h2M135 41h1M143 41h2M150 41h4M158 41h2M162 41h1M164 41h2M173 41h2M178 41h2M186 41h2M189 41h2M206 41h2M211 41h3M215 41h1M217 41h1M8 42h1M10 42h2M13 42h3M23 42h1M29 42h1M33 42h3M43 42h1M53 42h1M63 42h2M70 42h1M83 42h1M86 42h2M99 42h3M106 42h1M119 42h2M125 42h1M136 42h1M143 42h2M147 42h2M150 42h4M159 42h1M161 42h1M164 42h2M173 42h1M178 42h2M187 42h4M192 42h1M197 42h1M206 42h2M211 42h2M216 42h2M10 43h5M23 43h2M29 43h1M35 43h3M42 43h2M53 43h1M55 43h1M59 43h1M64 43h3M68 43h3M83 43h2M87 43h2M99 43h3M105 43h2M120 43h3M124 43h3M135 43h1M143 43h3M148 43h1M151 43h3M160 43h5M173 43h2M178 43h2M190 43h3M194 43h1M198 43h3M205 43h3M211 43h2M214 43h4M23 44h2M28 44h2M35 44h1M37 44h1M40 44h2M43 44h1M53 44h2M65 44h1M67 44h3M71 44h1M83 44h4M89 44h1M99 44h1M105 44h2M121 44h1M126 44h1M135 44h2M142 44h4M147 44h2M152 44h2M162 44h1M173 44h1M178 44h2M190 44h5M196 44h3M200 44h2M206 44h2M211 44h3M215 44h3M23 45h2M26 45h1M28 45h2M36 45h2M39 45h1M41 45h3M53 45h2M58 45h2M66 45h3M70 45h3M84 45h3M88 45h3M99 45h2M104 45h3M122 45h1M126 45h2M134 45h2M142 45h3M149 45h1M153 45h1M173 45h1M178 45h2M192 45h9M206 45h2M211 45h1M213 45h2M217 45h1M23 46h2M28 46h2M37 46h6M53 46h1M57 46h3M67 46h2M70 46h4M85 46h1M87 46h3M91 46h1M99 46h2M105 46h2M122 46h4M127 46h10M142 46h3M147 46h1M151 46h3M173 46h7M194 46h5M201 46h1M206 46h2M211 46h4M23 47h2M29 47h1M53 47h2M57 47h3M68 47h1M73 47h1M75 47h2M86 47h1M89 47h1M91 47h4M99 47h2M102 47h1M104 47h3M123 47h4M128 47h1M133 47h2M140 47h3M147 47h4M152 47h2M173 47h3M178 47h2M201 47h1M206 47h2M211 47h2M217 47h1M23 48h1M28 48h2M53 48h1M56 48h1M58 48h2M68 48h2M71 48h1M74 48h1M76 48h3M86 48h10M99 48h2M102 48h1M104 48h3M125 48h2M128 48h1M130 48h1M137 48h1M151 48h3M173 48h1M178 48h2M201 48h1M206 48h2M211 48h3M216 48h1M23 49h1M28 49h2M53 49h2M57 49h1M59 49h1M69 49h2M72 49h1M77 49h2M87 49h3M92 49h3M99 49h2M104 49h3M125 49h3M130 49h2M133 49h1M138 49h1M140 49h4M147 49h1M152 49h2M173 49h2M178 49h2M201 49h1M203 49h1M205 49h3M211 49h3M216 49h2M23 50h2M28 50h2M53 50h3M58 50h2M70 50h1M72 50h1M78 50h3M88 50h3M92 50h3M99 50h2M105 50h2M127 50h4M134 50h5M140 50h4M147 50h1M149 50h1M151 50h3M173 50h1M179 50h1M201 50h2M206 50h2M211 50h2M215 50h1M217 50h1M23 51h3M27 51h3M53 51h4M58 51h2M71 51h2M74 51h1M76 51h1M79 51h1M89 51h2M92 51h3M99 51h4M104 51h3M131 51h5M140 51h2M143 51h3M147 51h3M152 51h2M173 51h3M178 51h2M201 51h3M206 51h2M211 51h4M217 51h1M23 52h7M53 52h7M72 52h4M79 52h1M90 52h5M99 52h8M141 52h1M144 52h2M147 52h7M173 52h7M201 52h3M205 52h3M211 52h7M25 53h5M55 53h4M74 53h1M78 53h2M91 53h3M103 53h4M140 53h2M144 53h3M149 53h5M175 53h5M203 53h5M214 53h4M28 54h2M58 54h1M74 54h5M92 54h1M104 54h3M140 54h3M144 54h3M151 54h2M178 54h1M206 54h1M216 54h2M76 55h3M139 55h4M145 55h2M78 56h1M139 56h2M142 56h1M146 56h1M138 57h2M146 57h1M136 58h2M146 58h1M124 59h4M134 59h4M143 59h1M146 59h1M124 60h4M134 60h3M145 60h1M124 61h5M136 61h2M139 61h4M144 61h2M125 62h5M135 62h2M141 62h1M144 62h1M126 63h5M135 63h4M144 63h3M127 64h5M136 64h2M144 64h3M127 65h7M142 65h1M145 65h2M128 66h7M140 66h1M142 66h2M145 66h2M131 67h9M145 67h2M131 68h5M138 68h1M143 68h4M132 69h3M136 69h3M141 69h1M143 69h3M133 70h4M138 70h1M140 70h5M138 71h5" />
<path stroke="#0000ff" d="M161 3h1M98 14h1M181 16h1M111 22h1M115 22h1M116 23h1M125 29h1M10 30h1M160 30h1M6 31h1M62 33h1M191 35h1M88 37h1M4 38h1M185 39h1M156 40h1M90 44h1M120 44h1M65 45h1M73 45h1M36 46h1M143 47h1M79 49h1M101 53h1M213 53h1M91 54h1M93 54h1M207 54h1M137 57h1M129 61h1M130 62h1M146 62h1M131 63h1M146 69h1" />
</svg>