<svg xmlns="http://www.w3.org/2000/svg" viewBox="0 -0.5 128 128" shape-rendering="crispEdges">
<metadata>Made with Pixels to Svg https://codepen.io/shshaw/pen/XbxvNj</metadata>
<path stroke="#333333" d="M0 0h1M126 5h1M90 6h1M89 8h1M125 10h1M87 11h1M83 15h1M80 17h1M125 17h1M77 19h1M75 20h1M87 37h1M87 38h1M85 39h2M84 40h2M82 43h1M80 45h1M81 46h1M1 74h1M127 77h1M127 78h1M126 79h1M120 84h1M34 103h2M27 104h3M35 104h1M32 105h3M16 109h1M35 111h1M11 112h1M10 113h1M9 114h1" />
<path stroke="#000033" d="M1 0h27M29 0h2M49 0h17M69 0h21M94 0h12M114 0h14M1 1h30M49 1h17M68 1h23M94 1h11M107 1h1M110 1h17M0 2h32M50 2h14M67 2h23M93 2h11M106 2h2M110 2h17M0 3h32M51 3h8M66 3h25M92 3h16M110 3h18M0 4h32M52 4h5M66 4h25M92 4h17M110 4h16M127 4h1M0 5h33M55 5h1M65 5h26M92 5h34M127 5h1M0 6h33M65 6h25M91 6h35M127 6h1M0 7h33M66 7h24M91 7h34M126 7h2M0 8h33M34 8h1M67 8h22M90 8h35M126 8h2M0 9h32M33 9h2M67 9h2M70 9h3M74 9h14M89 9h36M126 9h2M0 10h36M67 10h2M70 10h17M89 10h36M126 10h2M0 11h34M35 11h2M67 11h2M70 11h1M75 11h11M88 11h37M126 11h2M0 12h33M34 12h1M36 12h2M74 12h12M87 12h38M126 12h2M0 13h32M33 13h2M36 13h3M72 13h1M75 13h10M86 13h39M126 13h2M0 14h32M33 14h1M35 14h3M73 14h1M75 14h9M85 14h43M0 15h33M34 15h2M38 15h2M74 15h8M84 15h44M0 16h40M75 16h6M83 16h42M0 17h41M42 17h1M75 17h5M81 17h44M0 18h44M75 18h3M80 18h45M0 19h46M75 19h1M78 19h47M2 20h46M76 20h49M3 21h37M41 21h8M74 21h51M4 22h48M74 22h51M4 23h52M75 23h50M6 24h52M74 24h44M121 24h4M6 25h52M74 25h46M122 25h3M8 26h50M74 26h17M93 26h28M124 26h1M10 27h48M73 27h18M93 27h28M12 28h45M73 28h50M14 29h43M72 29h51M15 30h41M72 30h49M16 31h39M72 31h28M109 31h11M123 31h2M127 31h1M0 32h1M18 32h35M71 32h25M113 32h5M120 32h5M127 32h1M0 33h1M22 33h30M70 33h23M117 33h8M127 33h1M0 34h2M29 34h23M70 34h21M118 34h7M127 34h1M0 35h2M33 35h18M69 35h20M120 35h5M127 35h1M0 36h3M37 36h13M69 36h19M121 36h4M127 36h1M0 37h1M41 37h7M68 37h18M88 37h1M90 37h2M123 37h2M126 37h2M0 38h3M67 38h18M88 38h3M92 38h2M124 38h4M0 39h4M66 39h18M87 39h9M125 39h3M0 40h3M5 40h1M66 40h17M86 40h13M126 40h2M0 41h3M4 41h3M65 41h17M85 41h16M0 42h8M64 42h17M82 42h2M85 42h17M1 43h8M63 43h19M83 43h21M1 44h9M62 44h18M82 44h22M2 45h9M60 45h19M81 45h25M2 46h10M59 46h20M82 46h25M3 47h11M57 47h21M82 47h26M3 48h13M56 48h21M81 48h26M4 49h13M56 49h21M81 49h28M4 50h15M56 50h21M81 50h30M5 51h16M60 51h16M80 51h32M5 52h19M47 52h5M55 52h21M81 52h33M5 53h23M44 53h7M56 53h19M81 53h33M5 54h46M53 54h1M56 54h19M81 54h37M6 55h44M52 55h3M57 55h18M81 55h38M6 56h29M36 56h14M51 56h5M57 56h18M83 56h39M6 57h69M83 57h39M6 58h69M83 58h40M6 59h69M84 59h39M6 60h69M84 60h40M6 61h69M85 61h40M6 62h69M85 62h41M6 63h69M86 63h40M6 64h69M86 64h41M5 65h64M70 65h5M87 65h41M0 66h1M5 66h64M70 66h5M89 66h39M0 67h1M5 67h70M89 67h39M0 68h2M5 68h71M90 68h38M0 69h3M4 69h23M28 69h48M92 69h36M0 70h3M4 70h24M29 70h5M35 70h41M93 70h35M0 71h3M4 71h24M29 71h4M34 71h43M94 71h34M0 72h2M3 72h25M30 72h2M34 72h42M94 72h34M0 73h1M2 73h26M33 73h44M96 73h32M0 74h1M2 74h21M32 74h46M96 74h32M0 75h1M2 75h24M34 75h44M97 75h31M1 76h27M37 76h42M100 76h28M0 77h27M32 77h48M100 77h27M0 78h26M29 78h1M32 78h48M99 78h1M101 78h25M0 79h26M27 79h4M32 79h42M75 79h6M100 79h1M102 79h24M127 79h1M0 80h25M26 80h5M32 80h49M103 80h22M126 80h2M0 81h32M33 81h49M104 81h20M125 81h3M0 82h84M108 82h14M124 82h4M0 83h85M111 83h11M123 83h5M0 84h86M115 84h5M121 84h7M0 85h87M120 85h8M0 86h57M69 86h19M118 86h10M0 87h53M72 87h19M117 87h11M0 88h50M75 88h18M115 88h13M0 89h48M77 89h18M112 89h16M0 90h46M79 90h19M101 90h2M106 90h22M0 91h45M81 91h16M104 91h24M0 92h41M42 92h1M82 92h12M103 92h25M0 93h41M83 93h15M101 93h27M0 94h41M85 94h13M99 94h1M102 94h7M111 94h17M0 95h40M43 95h1M45 95h2M86 95h11M98 95h3M102 95h7M111 95h17M0 96h39M43 96h1M45 96h1M49 96h7M87 96h41M0 97h38M40 97h1M44 97h1M48 97h10M88 97h40M0 98h34M39 98h1M47 98h12M88 98h40M0 99h36M46 99h16M89 99h39M0 100h36M45 100h20M90 100h38M0 101h35M36 101h3M48 101h17M91 101h37M0 102h35M36 102h3M50 102h17M91 102h37M0 103h34M37 103h1M45 103h4M51 103h18M92 103h2M95 103h33M0 104h27M31 104h1M37 104h1M41 104h2M45 104h3M49 104h20M92 104h36M0 105h23M26 105h6M36 105h1M39 105h1M45 105h1M48 105h22M93 105h35M0 106h21M23 106h9M38 106h2M42 106h1M48 106h24M93 106h35M0 107h19M21 107h11M37 107h1M39 107h1M42 107h2M47 107h26M94 107h34M0 108h17M18 108h13M46 108h1M48 108h26M94 108h34M0 109h15M17 109h14M45 109h2M48 109h4M54 109h2M57 109h19M94 109h34M0 110h14M15 110h16M35 110h2M45 110h8M58 110h19M95 110h33M0 111h12M14 111h17M37 111h3M48 111h4M53 111h1M59 111h20M95 111h33M0 112h11M12 112h18M37 112h1M50 112h4M60 112h20M95 112h33M0 113h10M11 113h19M36 113h1M44 113h6M54 113h1M61 113h21M95 113h33M0 114h9M10 114h20M39 114h3M44 114h11M56 114h2M62 114h20M95 114h33M0 115h8M9 115h21M38 115h1M40 115h2M44 115h11M56 115h5M63 115h20M95 115h33M0 116h7M8 116h22M39 116h4M44 116h18M64 116h20M95 116h33M0 117h6M7 117h23M37 117h1M39 117h4M44 117h18M65 117h19M95 117h33M0 118h5M6 118h24M37 118h4M42 118h1M44 118h19M66 118h18M95 118h33M0 119h4M5 119h1M7 119h23M39 119h5M45 119h18M66 119h19M95 119h33M0 120h4M6 120h1M8 120h22M38 120h26M67 120h20M95 120h33M2 121h1M5 121h25M38 121h27M68 121h20M95 121h32M2 122h1M4 122h26M40 122h25M68 122h20M95 122h12M108 122h19M0 123h2M3 123h27M42 123h23M69 123h19M95 123h12M108 123h4M113 123h15M0 124h30M43 124h22M69 124h19M95 124h12M108 124h2M112 124h16M0 125h1M2 125h28M45 125h21M70 125h19M95 125h8M104 125h3M111 125h17M1 126h1M3 126h28M46 126h20M70 126h20M94 126h10M110 126h18M0 127h1M3 127h28M47 127h20M70 127h20M94 127h12M111 127h17" />
<path stroke="#000000" d="M28 0h1M33 7h1M33 8h1M32 9h1M34 11h1M33 12h1M35 12h1M32 13h1M35 13h1M32 14h1M34 14h1M38 14h1M33 15h1M36 15h2M40 16h1M41 17h1M40 21h1" />
<path stroke="#333399" d="M31 0h4M38 0h1M44 0h2M32 1h3M38 1h1M45 1h2M32 2h5M38 2h1M46 2h2M32 3h5M38 3h2M47 3h1M34 4h3M38 4h2M47 4h2M33 5h1M35 5h2M38 5h2M48 5h1M34 6h4M39 6h2M48 6h2M34 7h1M36 7h2M39 7h3M48 7h2M36 8h7M47 8h3M59 8h3M37 9h13M59 9h2M36 10h1M38 10h12M60 10h1M39 11h5M45 11h4M60 11h1M39 12h5M47 12h1M60 12h2M40 13h5M60 13h2M40 14h6M60 14h3M41 15h7M60 15h3M44 16h4M43 17h1M46 17h4M46 18h7M47 19h9M48 20h7M51 21h8M54 22h7M72 22h2M60 23h3M69 23h5M67 24h5M2 25h1M67 25h5M121 25h1M0 26h1M67 26h6M67 27h6M67 28h5M67 29h5M67 30h4M67 31h4M66 32h4M99 32h13M2 33h1M65 33h5M101 33h14M3 34h1M65 34h4M104 34h10M115 34h3M3 35h2M6 35h1M64 35h5M106 35h7M115 35h1M63 36h5M108 36h6M115 36h2M120 36h1M24 37h6M63 37h4M111 37h1M113 37h1M115 37h2M121 37h1M21 38h14M62 38h4M112 38h1M115 38h2M121 38h2M8 39h4M19 39h5M32 39h5M61 39h5M109 39h4M117 39h5M8 40h7M19 40h4M35 40h3M60 40h5M109 40h5M119 40h1M122 40h1M125 40h1M8 41h14M37 41h3M58 41h6M111 41h3M115 41h2M121 41h2M125 41h1M9 42h13M38 42h3M59 42h4M108 42h2M120 42h6M12 43h11M38 43h4M59 43h3M108 43h2M117 43h8M0 44h1M13 44h11M39 44h4M55 44h2M58 44h3M109 44h1M119 44h7M12 45h1M14 45h10M39 45h4M53 45h3M58 45h1M109 45h1M119 45h2M122 45h6M1 46h1M13 46h1M15 46h10M38 46h6M53 46h2M57 46h1M120 46h1M124 46h4M0 47h1M2 47h1M19 47h10M34 47h11M46 47h2M51 47h1M53 47h3M111 47h1M119 47h1M125 47h3M0 48h2M16 48h1M22 48h13M37 48h1M39 48h9M49 48h1M51 48h1M53 48h2M112 48h2M120 48h1M126 48h2M0 49h3M25 49h10M37 49h14M112 49h2M119 49h3M127 49h1M0 50h4M20 50h1M29 50h5M38 50h13M116 50h5M127 50h1M0 51h4M32 51h1M34 51h1M38 51h10M127 51h1M0 52h4M26 52h1M32 52h7M44 52h1M0 53h1M2 53h3M32 53h2M38 53h2M2 54h3M76 54h1M3 55h2M75 55h1M2 56h3M75 56h1M3 57h2M75 57h1M4 58h1M75 58h1M75 59h2M75 60h2M75 61h2M75 62h2M75 63h3M75 64h4M75 65h4M75 66h4M77 67h3M76 68h4M83 68h3M76 69h12M78 70h6M87 70h3M78 71h6M89 71h2M77 72h7M90 72h2M79 73h5M91 73h2M80 74h4M92 74h2M82 75h2M93 75h1M79 76h1M93 76h2M94 77h1M93 78h2M81 79h1M92 79h4M82 80h1M88 80h1M91 80h4M83 81h1M92 81h2M95 81h1M84 82h1M93 83h1M92 84h5M88 85h1M92 85h5M60 86h5M95 86h3M56 87h11M68 87h3M96 87h4M53 88h17M73 88h1M94 88h1M96 88h1M98 88h4M103 88h4M58 89h15M97 89h1M99 89h11M62 90h12M65 91h10M66 92h12M81 92h1M67 93h13M67 94h14M67 95h3M76 95h6M67 96h2M78 96h5M85 96h1M67 97h2M79 97h4M86 97h1M68 98h2M80 98h5M68 99h2M81 99h4M69 100h2M81 100h6M70 101h2M81 101h7M71 102h1M82 102h6M90 102h1M72 103h2M82 103h7M74 104h2M80 104h11M75 105h9M86 105h6M77 106h5M86 106h6M88 107h5M89 108h4M89 109h5M89 110h5M90 111h4M91 112h3M91 113h4M92 114h3M93 115h2M93 116h2M93 117h2M30 118h1M93 118h2M30 119h1M94 119h1M30 120h1M30 121h1M30 122h2M30 123h2M30 124h2M31 125h2M40 125h1M31 126h3M38 126h6M31 127h3M38 127h2M43 127h2" />
<path stroke="#333366" d="M35 0h3M46 0h2M93 0h1M31 1h1M35 1h3M47 1h1M92 1h1M127 1h1M37 2h1M48 2h1M91 2h2M104 2h1M127 2h1M37 3h1M48 3h2M91 3h1M37 4h1M49 4h1M61 4h1M91 4h1M126 4h1M37 5h1M49 5h2M59 5h6M91 5h1M38 6h1M50 6h1M58 6h7M38 7h1M50 7h1M58 7h7M50 8h2M57 8h2M62 8h2M125 8h1M50 9h2M57 9h2M61 9h4M125 9h1M50 10h2M56 10h4M61 10h5M44 11h1M49 11h4M55 11h2M58 11h2M61 11h4M44 12h3M48 12h5M58 12h2M62 12h3M66 12h1M71 12h1M86 12h1M45 13h4M58 13h2M62 13h4M85 13h1M46 14h3M58 14h2M63 14h3M67 14h1M84 14h1M48 15h1M58 15h2M63 15h2M72 15h1M48 16h3M58 16h7M69 16h1M50 17h4M57 17h8M67 17h1M53 18h13M73 18h1M79 18h1M125 18h1M46 19h1M56 19h11M68 19h1M72 19h3M125 19h1M55 20h14M71 20h4M127 20h1M59 21h10M71 21h1M73 21h1M127 21h1M0 22h1M61 22h11M127 22h1M0 23h1M58 23h2M63 23h6M127 23h1M0 24h1M2 24h1M127 24h1M66 27h1M1 28h2M66 28h1M2 29h1M66 29h1M3 30h1M66 30h1M65 31h2M101 31h7M1 32h1M65 32h1M96 32h3M112 32h1M63 33h2M93 33h8M2 34h1M4 34h1M63 34h2M91 34h13M62 35h2M89 35h5M95 35h1M104 35h1M8 36h1M24 36h5M61 36h2M88 36h4M21 37h3M30 37h4M61 37h2M86 37h1M89 37h1M19 38h2M35 38h2M60 38h2M66 38h1M85 38h1M12 39h2M18 39h1M37 39h2M58 39h3M84 39h1M124 39h1M16 40h1M18 40h1M38 40h2M59 40h1M83 40h1M40 41h2M56 41h2M82 41h2M126 41h1M41 42h2M55 42h4M81 42h1M42 43h1M54 43h5M43 44h1M53 44h2M80 44h1M108 44h1M43 45h2M52 45h1M56 45h1M59 45h1M79 45h1M44 46h5M52 46h1M79 46h1M45 47h1M48 47h1M52 47h1M78 47h1M81 47h1M48 48h1M78 48h3M111 48h1M77 49h4M77 50h3M76 51h3M117 51h1M119 51h1M76 52h3M1 53h1M76 53h2M1 54h1M75 54h1M77 54h1M1 55h2M76 55h2M1 56h1M76 56h2M2 57h1M76 57h2M2 58h2M5 58h1M76 58h2M3 59h3M77 59h1M3 60h3M77 60h1M3 61h3M77 61h2M3 62h3M77 62h2M3 63h3M78 63h1M3 64h2M3 65h2M3 66h2M79 66h1M3 67h2M80 67h5M3 68h2M80 68h3M86 68h1M3 69h1M88 69h1M3 70h1M76 70h1M3 71h1M28 71h1M33 71h1M91 71h1M2 72h1M92 72h1M1 75h1M94 75h1M95 76h1M95 77h2M123 82h1M96 83h1M122 83h1M100 84h1M118 85h2M59 86h1M65 86h1M104 86h2M112 86h6M54 87h2M71 87h1M100 87h1M103 87h13M51 88h2M74 88h1M107 88h7M49 89h9M76 89h1M110 89h1M47 90h4M52 90h2M55 90h6M78 90h1M45 91h5M51 91h1M44 92h1M49 92h1M66 93h1M41 94h1M66 94h1M41 95h1M47 96h1M66 96h1M41 97h1M44 98h1M67 98h1M41 99h1M68 100h1M46 101h1M69 101h1M48 102h1M70 102h1M39 103h1M71 103h1M38 104h1M73 104h1M24 105h2M47 105h1M74 105h1M21 106h2M33 106h1M40 106h1M82 106h1M19 107h1M32 107h1M36 108h1M88 108h1M15 109h1M31 109h1M88 109h1M14 110h1M31 110h2M31 111h3M46 111h1M30 112h5M90 112h1M94 112h1M30 113h4M90 113h1M30 114h4M91 114h1M30 115h3M34 115h1M62 115h1M91 115h2M30 116h3M91 116h2M6 117h1M30 117h3M91 117h2M5 118h1M31 118h2M92 118h1M4 119h1M31 119h1M33 119h1M92 119h2M31 120h4M66 120h1M92 120h3M31 121h4M92 121h3M32 122h4M92 122h3M127 122h1M32 123h4M37 123h4M92 123h3M32 124h11M92 124h3M30 125h1M33 125h7M41 125h3M69 125h1M92 125h2M34 126h4M44 126h1M92 126h2M34 127h4M45 127h2M92 127h2" />
<path stroke="#3333cc" d="M39 0h1M39 1h1M39 2h1M33 4h1M34 5h1M40 5h1M47 5h1M41 6h1M35 7h1M42 7h1M47 7h1M35 8h1M43 8h3M36 9h1M37 10h1M37 11h2M38 12h1M39 13h1M42 16h2M44 17h2M45 18h1M72 24h1M72 25h1M116 35h3M117 36h3M117 37h4M117 38h4M24 39h8M122 39h2M23 40h2M33 40h2M123 40h2M22 41h3M35 41h2M123 41h2M22 42h2M37 42h1M126 42h1M10 43h2M23 43h2M37 43h1M110 43h1M125 43h3M11 44h2M24 44h2M37 44h2M110 44h2M118 44h1M126 44h2M0 45h1M13 45h1M24 45h3M36 45h3M0 46h1M14 46h1M25 46h5M34 46h4M1 47h1M15 47h4M29 47h5M112 47h2M2 48h1M17 48h5M118 48h2M18 49h7M116 49h3M21 50h8M23 51h9M27 52h5M39 52h5M34 53h4M76 67h1M77 70h1M84 70h3M77 71h1M84 71h1M88 71h1M84 72h1M89 72h1M78 73h1M84 73h1M78 74h2M84 74h1M91 74h1M79 75h3M84 75h1M92 75h1M80 76h6M80 77h7M93 77h1M81 78h6M89 78h4M82 79h10M83 80h1M85 80h3M89 80h2M84 81h1M86 81h2M89 81h3M85 82h1M87 82h6M86 83h2M89 83h4M87 84h5M89 85h3M90 86h5M67 87h1M92 87h4M70 88h3M95 88h1M73 89h3M74 90h4M75 91h5M78 92h3M80 93h3M81 94h3M70 95h6M82 95h3M69 96h2M76 96h2M83 96h2M69 97h2M77 97h2M83 97h3M70 98h1M78 98h2M85 98h3M70 99h1M79 99h2M85 99h4M71 100h1M80 100h1M87 100h2M72 101h1M80 101h1M88 101h2M72 102h2M80 102h2M88 102h2M74 103h2M79 103h3M89 103h2M76 104h4M91 104h1M40 127h1M42 127h1" />
<path stroke="#6666cc" d="M40 0h4M40 1h1M44 1h1M45 2h1M40 3h1M45 3h2M46 4h1M41 5h1M42 6h1M43 7h1M46 7h1M25 40h1M32 40h1M34 45h1M33 46h1M116 48h1M85 71h3M90 73h1M92 76h1M74 102h1M76 103h1M41 127h1" />
<path stroke="#000066" d="M48 0h1M66 0h3M90 0h3M48 1h1M66 1h2M93 1h1M49 2h1M64 2h3M90 2h1M50 3h1M59 3h7M32 4h1M50 4h2M57 4h3M63 4h3M51 5h4M56 5h3M33 6h1M51 6h7M52 7h5M65 7h1M125 7h1M52 8h5M65 8h2M52 9h5M66 9h1M53 10h3M54 12h4M50 13h8M73 13h1M39 14h1M49 14h9M66 14h1M40 15h1M51 15h6M41 16h1M51 16h2M54 16h1M56 16h1M67 16h1M71 16h1M126 16h1M54 17h1M73 17h2M126 17h1M44 18h1M74 18h1M127 19h1M0 20h2M0 21h3M49 21h2M1 22h3M52 22h2M1 23h3M56 23h2M74 23h1M1 24h1M3 24h1M58 24h9M73 24h1M118 24h1M1 25h1M5 25h1M58 25h9M73 25h1M4 26h4M58 26h8M73 26h1M3 27h1M5 27h5M58 27h8M121 27h1M3 28h2M6 28h6M57 28h9M72 28h1M123 28h1M5 29h1M8 29h6M57 29h9M6 30h9M56 30h9M71 30h1M0 31h1M7 31h9M55 31h10M71 31h1M100 31h1M108 31h1M122 31h1M7 32h11M53 32h11M70 32h1M1 33h1M9 33h13M52 33h11M116 33h1M8 34h21M52 34h11M69 34h1M2 35h1M12 35h21M51 35h11M96 35h1M99 35h4M3 36h1M10 36h1M13 36h11M30 36h7M50 36h11M68 36h1M92 36h16M126 36h1M12 37h8M34 37h7M48 37h12M67 37h1M92 37h17M122 37h1M125 37h1M12 38h7M37 38h22M91 38h1M94 38h16M123 38h1M39 39h19M96 39h13M41 40h16M65 40h1M99 40h8M42 41h13M64 41h1M101 41h3M105 41h3M127 41h1M43 42h11M63 42h1M102 42h5M0 43h1M44 43h7M62 43h1M104 43h4M10 44h1M44 44h7M61 44h1M104 44h3M1 45h1M11 45h1M46 45h2M106 45h2M12 46h1M58 46h1M80 46h1M107 46h2M80 47h1M77 48h1M108 48h3M123 48h2M3 49h1M17 49h1M109 49h3M123 49h3M19 50h1M80 50h1M111 50h2M122 50h4M4 51h1M21 51h1M79 51h1M112 51h2M120 51h7M24 52h2M45 52h2M79 52h2M116 52h11M28 53h2M41 53h3M75 53h1M79 53h2M114 53h14M78 54h3M118 54h10M0 55h1M5 55h1M50 55h1M56 55h1M78 55h3M119 55h9M0 56h1M5 56h1M79 56h4M122 56h6M0 57h2M79 57h4M122 57h6M0 58h2M79 58h4M123 58h5M0 59h2M79 59h5M123 59h5M0 60h2M79 60h5M124 60h4M0 61h2M79 61h6M125 61h3M0 62h3M79 62h6M126 62h2M0 63h3M80 63h6M126 63h2M0 64h3M5 64h1M80 64h6M127 64h1M0 65h3M80 65h7M1 66h2M80 66h9M1 67h2M75 67h1M86 67h3M2 68h1M88 68h2M27 69h1M89 69h3M91 70h2M92 71h2M33 72h1M76 72h1M93 72h1M30 73h1M77 73h1M94 73h2M23 74h1M94 74h2M78 75h1M97 76h3M26 78h1M80 78h1M100 78h1M74 79h1M99 79h1M101 79h1M81 80h1M102 80h1M32 81h1M82 81h1M99 81h5M99 82h9M99 83h3M103 83h8M86 84h1M97 84h1M99 84h1M103 84h12M87 85h1M98 85h2M102 85h1M104 85h12M57 86h1M67 86h2M88 86h2M99 86h1M102 86h1M110 86h2M53 87h1M91 87h1M116 87h1M50 88h1M93 88h1M114 88h1M48 89h1M95 89h2M111 89h1M46 90h1M103 90h3M52 91h1M56 91h6M63 91h1M80 91h1M41 92h1M48 92h1M50 92h15M94 92h2M47 93h1M49 93h17M46 94h1M48 94h1M50 94h16M84 94h1M47 95h1M50 95h16M85 95h1M44 96h1M56 96h10M86 96h1M58 97h9M87 97h1M34 98h1M59 98h8M62 99h6M37 100h2M65 100h3M89 100h1M65 101h4M90 101h1M67 102h3M69 103h2M91 103h1M94 103h1M32 104h1M69 104h4M23 105h1M70 105h4M92 105h1M47 106h1M72 106h5M85 106h1M92 106h1M34 107h1M73 107h14M93 107h1M31 108h1M74 108h14M93 108h1M76 109h12M37 110h1M77 110h12M94 110h1M12 111h1M79 111h10M94 111h1M35 112h1M80 112h9M40 113h1M60 113h1M82 113h7M60 114h1M82 114h8M35 115h1M61 115h1M83 115h8M7 116h1M37 116h1M62 116h2M84 116h6M62 117h1M64 117h1M84 117h7M63 118h3M84 118h7M37 119h1M44 119h1M63 119h3M85 119h6M35 120h3M64 120h2M87 120h5M36 121h2M65 121h3M88 121h4M36 122h4M65 122h3M88 122h4M41 123h1M65 123h4M88 123h4M112 123h1M65 124h4M88 124h4M66 125h3M89 125h3M94 125h1M103 125h1M66 126h4M90 126h2M67 127h3M90 127h2" />
<path stroke="#006699" d="M106 0h1M108 1h1M69 12h1M126 23h1M126 24h1M126 25h1M2 26h1M123 26h1M0 29h1M123 29h1M123 30h1M2 31h1M121 31h1M126 31h1M125 32h1M4 36h3M7 37h1M4 38h1M114 38h1M4 39h1M6 39h1M114 39h1M109 41h1M118 41h1M117 42h1M111 46h1M119 46h1M55 48h1M50 51h1M55 51h2M52 53h1M54 53h1M32 72h1M29 73h1M31 74h1M28 76h1M31 76h1M27 78h1M96 78h3M98 79h1M98 80h1M97 81h1M98 90h1M100 90h1M98 91h1M98 93h3M42 96h1M38 99h2M40 100h1M47 102h1M40 103h1M43 104h1M40 105h1M41 106h1M44 107h2M37 109h1M47 112h1M39 113h1M37 114h1M42 114h1M43 115h1M43 116h1M0 121h1M0 122h1M107 125h1" />
<path stroke="#009999" d="M107 0h1M68 13h1M69 15h1M126 26h1M125 30h2M36 50h1M51 51h1M54 52h1M28 77h1M100 91h1M42 102h1M109 126h1" />
<path stroke="#00cccc" d="M108 0h1M69 13h1M124 27h2M127 27h1M127 28h1M124 29h1M127 29h1M52 51h1M54 51h1M53 52h1M29 76h2M97 80h1M99 91h1M43 102h1M42 109h1M40 110h1M43 110h1M56 112h1M108 126h1M109 127h1" />
<path stroke="#006666" d="M109 0h1M67 15h1M71 15h1M91 27h1M126 32h1M51 54h1M55 54h1M27 75h1M32 76h2M31 79h1M109 95h1M40 99h1M46 102h1M42 108h1M39 110h1M57 111h1M41 112h1M55 113h1M110 125h1M105 126h1M106 127h1" />
<path stroke="#003366" d="M110 0h4M105 1h2M109 1h1M105 2h1M108 2h2M109 3h1M60 4h1M62 4h1M109 4h1M51 7h1M57 7h1M64 8h1M35 9h1M65 9h1M69 9h1M52 10h1M66 10h1M69 10h1M88 10h1M53 11h2M57 11h1M65 11h2M69 11h1M72 11h2M53 12h1M65 12h1M67 12h2M70 12h1M72 12h2M49 13h1M66 13h2M71 13h1M71 14h2M49 15h2M57 15h1M65 15h2M68 15h1M70 15h1M73 15h1M57 16h1M65 16h2M68 16h1M72 16h3M82 16h1M56 17h1M65 17h2M68 17h2M72 17h1M66 18h1M68 18h3M72 18h1M126 18h1M69 19h2M126 19h1M69 20h2M125 20h2M69 21h2M72 21h1M125 21h2M125 22h1M125 23h1M4 24h2M119 24h2M125 24h1M0 25h1M4 25h1M125 25h1M127 25h1M3 26h1M66 26h1M91 26h1M121 26h1M127 26h1M1 27h2M4 27h1M122 27h1M0 28h1M1 29h1M3 29h2M2 30h1M5 30h1M121 30h1M124 30h1M127 30h1M4 31h3M2 32h1M5 32h2M118 32h2M3 33h6M115 33h1M125 33h2M5 34h3M125 34h2M5 35h1M7 35h1M103 35h1M105 35h1M125 35h2M7 36h1M9 36h1M29 36h1M125 36h1M1 37h3M9 37h3M20 37h1M60 37h1M3 38h1M10 38h2M59 38h1M5 39h1M14 39h4M3 40h2M6 40h1M17 40h1M40 40h1M107 40h1M3 41h1M7 41h1M108 41h1M8 42h1M107 42h1M9 43h1M43 43h1M51 43h1M51 44h1M57 44h1M49 45h3M108 45h1M49 46h3M122 46h1M49 47h2M79 47h1M108 47h1M110 47h1M122 47h1M107 48h1M122 48h1M125 48h1M122 49h1M51 50h1M55 50h1M121 50h1M49 51h1M57 51h3M114 51h2M118 51h1M114 52h2M51 53h1M55 53h1M78 53h1M0 54h1M52 54h1M51 55h1M55 55h1M35 56h1M50 56h1M56 56h1M78 56h1M5 57h1M78 57h1M78 58h1M2 59h1M78 59h1M2 60h1M78 60h1M2 61h1M79 63h1M69 65h1M69 66h1M85 67h1M87 68h1M28 70h1M34 70h1M90 70h1M28 72h2M28 73h1M32 73h1M93 73h1M24 74h4M26 75h1M32 75h2M95 75h2M34 76h3M96 76h1M27 77h1M29 77h1M31 77h1M98 77h2M30 78h2M95 78h1M26 79h1M25 80h1M31 80h1M95 80h1M99 80h3M94 81h1M96 81h1M98 81h1M94 82h5M95 83h1M97 83h2M98 84h1M101 84h1M100 85h2M103 85h1M116 85h1M66 86h1M103 86h1M106 86h1M101 87h2M102 88h1M54 90h1M61 90h1M99 90h1M53 91h3M62 91h1M97 91h1M101 91h3M45 92h2M96 92h2M101 92h2M41 93h2M45 93h2M48 93h1M42 94h1M49 94h1M98 94h1M100 94h2M109 94h1M40 95h1M42 95h1M48 95h2M66 95h1M97 95h1M101 95h1M110 95h1M41 96h1M48 96h1M45 97h1M47 97h1M35 98h3M43 98h1M46 98h1M36 99h2M45 99h1M39 100h1M40 101h1M47 101h1M40 102h1M44 102h1M49 102h1M49 103h2M33 104h1M39 104h1M44 104h1M48 104h1M37 105h2M41 105h1M43 105h2M46 105h1M32 106h1M36 106h1M44 106h2M83 106h2M33 107h1M46 107h1M17 108h1M32 108h3M37 108h1M45 108h1M35 109h2M44 109h1M33 110h2M38 110h1M44 110h1M54 110h3M34 111h1M54 111h1M89 111h1M43 112h1M46 112h1M49 112h1M54 112h1M57 112h1M89 112h1M43 113h1M56 113h3M89 113h1M34 114h1M38 114h1M43 114h1M90 114h1M33 115h1M37 115h1M42 115h1M33 116h4M90 116h1M34 117h2M43 117h1M43 118h1M91 118h1M32 119h1M35 119h1M91 119h1M35 121h1M127 121h1M107 122h1M36 123h1M107 123h1M110 124h2M44 125h1M108 125h2M45 126h1M104 126h1M110 127h1" />
<path stroke="#330033" d="M0 1h1M71 11h1M74 13h1M74 14h1M125 16h1M71 17h1M78 18h1M76 19h1M126 78h1M122 82h1M44 94h1M44 95h1M46 96h1M38 97h2M40 98h1M39 101h1M35 102h1M36 103h1M30 104h1M36 104h1M35 105h1M38 107h1M39 108h1M47 108h1M33 109h1M47 109h1M36 111h1M52 111h1M59 112h1M35 114h2M39 115h1M38 116h1M41 118h1M7 120h1M3 121h1M3 122h1M2 123h1M1 127h2" />
<path stroke="#6666ff" d="M41 1h3M40 2h5M41 3h1M44 3h1M41 4h2M45 4h1M42 5h5M43 6h4M44 7h2M26 40h6M25 41h10M25 42h4M31 42h5M25 43h4M33 43h4M26 44h11M27 45h7M35 45h1M30 46h3M116 46h1M116 47h2M117 48h1M85 72h4M85 73h5M85 74h2M89 74h2M86 75h2M89 75h3M86 76h3M90 76h2M87 77h6M72 96h4M71 97h6M71 98h7M71 99h3M76 99h3M72 100h3M77 100h3M73 101h7M75 102h5M77 103h2" />
<path stroke="#330066" d="M91 1h1M73 9h1M53 16h1M55 16h1M55 17h1M67 18h1M71 18h1M67 19h1M71 19h1M5 28h1M6 29h2M4 30h1M65 30h1M64 32h1M8 35h4M94 35h1M97 35h2M11 36h2M57 40h2M55 41h1M104 41h1M54 42h1M52 43h2M52 44h1M107 44h1M45 45h1M48 45h1M113 50h1M116 51h1M127 52h1M79 64h1M79 65h1M97 77h1M102 83h1M102 84h1M117 85h1M58 86h1M100 86h2M107 86h3M51 90h1M50 91h1M43 92h1M47 92h1M65 92h1M43 93h2M43 94h1M47 94h1M36 100h1M34 106h1M87 107h1M34 109h1M58 112h1M34 113h1M37 113h1M61 114h1M33 117h1M36 117h1M63 117h1M33 118h2M34 119h1M38 119h1" />
<path stroke="#6699ff" d="M42 3h1M44 4h1M87 74h1M89 76h1M74 99h1M75 100h2" />
<path stroke="#9999ff" d="M43 3h1M43 4h1M29 42h2M29 43h4M88 75h1M75 99h1" />
<path stroke="#003333" d="M108 3h1M126 6h1M90 7h1M88 9h1M87 10h1M74 11h1M86 11h1M125 11h1M125 12h1M125 13h1M82 15h1M70 16h1M81 16h1M127 16h1M70 17h1M127 17h1M127 18h1M92 26h1M92 27h1M86 38h1M84 41h1M84 42h1M81 44h1M55 49h1M53 53h1M54 54h1M1 73h1M0 76h1M28 78h1M125 80h1M124 81h1M45 94h1M110 94h1M39 96h2M43 97h1M38 98h1M41 98h1M35 101h1M39 102h1M45 102h1M38 103h1M41 103h2M44 103h1M34 104h1M42 105h1M35 106h1M37 106h1M43 106h1M20 107h1M35 107h2M40 107h1M38 108h1M40 108h1M32 109h1M52 109h2M56 109h1M53 110h1M57 110h1M13 111h1M47 111h1M58 111h1M36 112h1M38 112h1M44 112h2M35 113h1M41 113h1M50 113h4M59 113h1M55 114h1M58 114h2M8 115h1M55 115h1M38 117h1M35 118h2M6 119h1M36 119h1M4 120h2M1 121h1M4 121h1M1 122h1M1 125h1M0 126h1M2 126h1" />
<path stroke="#3366cc" d="M40 4h1M47 6h1M46 8h1M111 43h1M117 44h1M111 45h1M118 45h1M110 46h1M112 46h2M115 46h1M117 46h1M115 47h1M114 48h2M35 49h1M88 81h1M71 96h1M42 97h1" />
<path stroke="#3399cc" d="M70 13h1M122 30h1M111 42h3M115 42h2M112 44h1M116 45h1M114 46h1M114 47h1M52 49h1M42 98h1M43 103h1M38 109h1M45 111h1M42 113h1M107 126h1" />
<path stroke="#0099cc" d="M68 14h1M70 14h1M1 26h1M122 26h1M0 27h1M124 28h1M0 30h1M4 37h1M6 37h1M6 38h1M114 40h1M114 41h1M112 43h1M112 45h2M115 45h1M117 45h1M52 50h1M54 50h1M52 52h1M28 75h1M31 75h1M30 77h1M96 79h1M96 80h1M98 92h1M100 92h1M43 99h2M41 100h1M44 100h1M41 101h1M45 101h1M41 102h1M41 107h1M44 108h1M43 109h1M40 111h1M43 111h2M40 112h1M55 112h1" />
<path stroke="#00ffff" d="M69 14h1M125 28h2M125 29h2M5 37h1M114 43h1M113 44h3M53 51h1M29 75h2M99 92h1M42 100h2M42 101h2M41 110h2M41 111h2M108 127h1" />
<path stroke="#003399" d="M126 22h1M120 25h1M1 31h1M3 31h1M120 31h1M3 32h2M114 34h1M113 35h2M114 36h1M8 37h1M114 37h1M7 38h3M113 38h1M7 39h1M113 39h1M115 39h2M7 40h1M108 40h1M115 40h2M118 40h1M120 40h2M119 41h2M110 42h1M118 42h1M57 45h1M110 45h1M121 45h1M55 46h2M109 46h1M121 46h1M56 47h1M109 47h1M120 47h2M35 48h2M38 48h1M50 48h1M52 48h1M121 48h1M51 49h1M53 49h1M115 49h1M34 50h1M37 50h1M114 50h2M33 51h1M35 51h3M48 51h1M28 74h1M93 82h1M94 83h1M97 85h1M98 86h1M97 88h1M98 89h1M40 104h1M84 105h2M35 108h1M48 112h1M36 115h1" />
<path stroke="#336699" d="M3 25h1M125 26h1M1 30h1M110 41h1M117 41h1M36 49h1M54 49h1M114 49h1M31 73h1M46 97h1M45 98h1M46 106h1M39 109h2M39 112h1M38 113h1M106 126h1" />
<path stroke="#0066cc" d="M123 27h1M116 43h1M118 46h1" />
<path stroke="#00ccff" d="M126 27h1M5 38h1M114 42h1M113 43h1M115 43h1M114 45h1M53 50h1M97 79h1M42 99h1M44 101h1M41 109h1M42 112h1M107 127h1" />
<path stroke="#336666" d="M125 31h1M43 108h1M107 124h1" />
<path stroke="#330099" d="M119 35h1M112 37h1M15 40h1M117 40h1M119 42h1M123 46h1M124 47h1M4 52h1M31 53h1M64 91h1" />
<path stroke="#000099" d="M109 37h2M110 38h2M127 42h1M14 47h1M123 47h1M126 49h1M126 50h1M22 51h1M30 53h1M40 53h1M85 83h1" />
<path stroke="#3333ff" d="M24 42h1M87 78h2M84 80h1M85 81h1M86 82h1M88 83h1" />
<path stroke="#6633cc" d="M36 42h1M118 47h1" />
<path stroke="#3399ff" d="M116 44h1" />
<path stroke="#33cccc" d="M35 50h1M29 74h2" />
<path stroke="#9966ff" d="M88 74h1" />
<path stroke="#6633ff" d="M85 75h1" />
<path stroke="#33ccff" d="M41 108h1" />
<path stroke="#339999" d="M55 111h2" />
</svg>